<?xml version="1.0" encoding="UTF-8"?>
<svg id="Capa_1" data-name="Capa 1" xmlns="http://www.w3.org/2000/svg" viewBox="0 0 258.35 165.86">
  <defs>
    <style>
      .cls-1 {
        fill: #13795f;
      }
    </style>
  </defs>
  <path class="cls-1" d="m170.78,128.88c-2.26.55-4.37,1.19-6.12,2.72-.72.63-1.18,1.44-1.79,2.14-1.42,1.62-2.82,3.27-3.89,5.17-.46.81-.93,1.61-1.43,2.4-.85,1.33-1.95,2.5-2.64,3.94-.49,1.02-1.11,1.92-1.95,2.69-.61.56-1.3.72-2.1.54-1.21-.26-1.61-1.22-1.96-2.22-.62-1.78-.18-3.48.5-5.14.81-1.99,1.51-4.04,2.63-5.89,1.6-2.64,2.99-5.41,4.77-7.95.81-1.15,1.56-2.33,2.34-3.49.34-.51.88-.85,1.26-1.29.35-.41.35-1.11.74-1.62.66-.85,1.51-1.43,2.46-1.88.56-.26,1.08-.57,1.58-.92.44-.31.91-.57,1.46-.67.24-.04.49-.13.71-.26,1.89-1.08,3.93-1.78,5.99-2.43,1.72-.54,3.38-1.23,5.12-1.71.69-.19,1.4-.3,2.1-.47,1.54-.38,3.05-.82,4.56-1.29,1.04-.32,2.1-.43,3.19-.29.82.1,1.65.17,2.48.05.11-.02.22-.04.32-.02,2.27.4,4.61.19,6.87.68.88.19,1.73.44,2.36,1.16-.28.37-.62.42-.99.32-2.85-.71-5.75-.83-8.67-.89-.22,0-.43,0-.65-.02-1.92-.18-3.76-.02-5.63.63-2.58.91-5.33,1.24-7.91,2.16-2.88,1.02-5.8,1.96-8.59,3.22-1.21.55-2.36,1.23-3.54,1.85-.97.51-1.71,1.26-2.43,2.1-2.31,2.69-4.13,5.71-6.12,8.62-.52.77-.98,1.6-1.31,2.48-.23.63-.76,1.05-1.06,1.62-1.29,2.5-2.45,5.05-3.35,7.71-.24.7-.51,1.4-.39,2.2.1.68.39,1.24.78,1.75.49.62,1.08.69,1.7.21.71-.56,1.36-1.2,1.63-2.1.23-.75.67-1.35,1.12-1.95.74-.97,1.41-1.98,2.03-3.04,1.37-2.36,2.81-4.69,4.71-6.68.52-.55.94-1.19,1.44-1.75,1.34-1.51,3-2.48,4.92-3.16,2.28-.81,4.66-1.24,6.94-2.01.66-.22,1.26-.52,1.84-.89.34-.22.69-.38,1.11-.36.4.02.56.32.66.62.11.33,0,.64-.36.8-1.33.62-2.59,1.42-4.07,1.66-.74.12-1.19.56-1.52,1.22-.29.58-.63,1.13-1.01,1.66-1.38,1.97-2.41,4.16-3.75,6.16-.6.9-1.27,1.73-1.7,2.74-.78,1.82-.12,4.81,2.26,5.36.8.19,1.58.49,2.39.62,1.81.3,3.64.44,5.48.21,1.04-.13,2.08.08,3.12.11,2.52.09,5.03.12,7.55.16.86.01,1.73.03,2.59.05.96.02,1.75-.36,2.56-.73.19-.09.37-.23.48-.43.24-.42.11-.79-.36-.93-2.42-.69-4.84-1.35-7.26-2.04-1.35-.38-2.75-.6-4.06-1.06-1.34-.47-2.73-.88-3.97-1.65-.63-.38-1.42-.48-2.06-.88-.15-.09-.33-.14-.48-.24-.12-.08-.2-.21-.14-.37.05-.15.17-.25.33-.2.45.12.92-.02,1.38.18,1.48.65,3.04,1.12,4.53,1.75.95.4,2.02.5,3.02.76,2.81.75,5.63,1.51,8.43,2.28,1.33.37,1.94,1.06,2.04,2.21.04.47-.06.83-.44,1.15-1.06.88-2.24,1.45-3.64,1.41-2.37-.07-4.75,0-7.12-.17-1.93-.15-3.88-.07-5.82-.12-.97-.02-1.93.32-2.9.08-.14-.03-.35,0-.38.13-.14.67-.79.91-1.15,1.39-.48.65-.5.98,0,1.64,1.15,1.54,2.71,2.57,4.41,3.4,1.85.91,3.83,1.08,5.87,1.13,1.93.05,3.88.1,5.81.35.82.11,1.65.08,2.48.09.29,0,.57-.09.82-.24.63-.36.74-1,.23-1.53-.35-.37-.81-.58-1.27-.82-1.99-1.02-3.92-2.12-5.75-3.42-.3-.21-.62-.4-.57-.84.03-.24-.06-.54.22-.67.28-.14.51.07.64.26.3.43.69.73,1.12,1.01,1.66,1.07,3.36,2.09,5.17,2.9.61.27,1.12.66,1.57,1.12.76.78.68,2.16-.1,2.92-.23.22-.48.43-.76.68.67.91,1.45,1.63,2.31,2.27,1.1.82,2.22,1.6,3.32,2.42.58.43,1.05.99,1.45,1.59.73,1.11.07,2.58-1.25,2.76-1.22.16-2.44.02-3.66-.14-2.5-.34-5.01-.58-7.41-1.41-2.1-.73-4.05-1.77-5.64-3.3-1.2-1.16-2.14-2.57-1.64-4.43.08-.31-.02-.47-.32-.56-.59-.17-1.18-.33-1.76-.53-2.37-.82-4.28-2.34-6.02-4.08-1.08-1.08-1.07-2.15-.06-3.34.07-.08.16-.15.22-.23.39-.47.35-.63-.28-.75-1.23-.24-2.49-.38-3.68-.79-1.6-.55-2.7-1.59-3.16-3.25-.34-1.23-.47-2.45-.11-3.72.23-.78.66-1.43,1.09-2.08,1-1.49,1.92-3.04,2.86-4.57.63-1.04,1.08-2.2,1.94-3.09.12-.13.19-.31.13-.63Zm25.35,35.53c.43,0,.86-.02,1.29,0,.37.02.75.03.95-.34.21-.39.03-.75-.18-1.11-.36-.62-.94-1.01-1.51-1.36-1.51-.93-2.91-1.97-4.14-3.26-.33-.34-.7-.64-.79-1.12-.08-.42-.34-.48-.7-.5-.75-.04-1.5-.05-2.26-.12-2.36-.22-4.72-.48-7.1-.4-.53.02-.69.18-.77.64-.05.29-.09.55-.03.84.31,1.61,1.31,2.71,2.64,3.51,2.21,1.31,4.55,2.34,7.14,2.6,1.82.18,3.61.65,5.45.62Z"/>
  <path class="cls-1" d="m92.96,97.08c.34.45.61.85,1.12,1.04.45.17.79.5,1.09.86.38.46.3.63-.36.79-.11.03-.21.04-.25.18.09.26.34.35.53.5.19.15.3.32.17.55-.13.22-.35.23-.57.17-.49-.13-.98-.26-1.31-.7-.2-.26-.5-.47-.61-.75-.36-1.01-1.16-1.78-1.49-2.8-.09-.28-.26-.4-.53-.47-2.84-.66-4.95-2.35-6.62-4.68-.54-.76-1.08-1.52-1.73-2.2-.95-.99-2.02-1.73-3.39-1.97-.14-.03-.29-.03-.42-.09-.33-.14-.52-.39-.47-.76.05-.41.34-.5.7-.51.83-.03,1.55.31,2.25.68,1.24.65,2.21,1.62,2.97,2.78,1.13,1.73,2.55,3.15,4.37,4.09,2.71,1.4,5.55,1.98,8.54.87,1.32-.49,2.64-.97,3.97-1.41,1.79-.59,3.29-1.52,4.4-3.1.53-.75,1.24-1.39,1.78-2.16.31-.45.97-.47,1.23-1.02.08-.17.34-.14.48,0,.97.91,2.2.78,3.37.78,1.08,0,2.16-.1,3.23-.21,1.1-.11,2.14-.33,2.63-1.53.19-.47.63-.56,1.1-.41.1.03.2.09.29.14.35.21.74.24.94-.14.24-.46-.23-.61-.51-.8-.23-.17-.53-.23-.73-.45-.54-.57-.47-1.03.27-1.32.55-.21,1.11-.35,1.2-1.15-.48-.07-.98-.09-1.44-.3-.98-.45-1.13-1.18-.37-1.92.16-.15.31-.3.46-.45.3-.3.53-.62.18-1.03-.36-.42-.76-.32-1.16-.06-.63.42-1.27.82-1.88,1.26-1.59,1.15-3.31,1.71-5.27,1.29-.24-.05-.53.02-.74-.09-.94-.48-1.45.03-1.95.73-.65.9-1.63,1.28-2.66,1.52-.66.15-1.35.23-2.02.34-.85.13-1.7.3-2.52.58-2.21.75-4.18.05-6.07-1.07-.36-.21-.33-.53,0-.77.33-.23.67-.23,1.01-.02.52.33,1.09.55,1.66.77.85.33,1.69.3,2.54.04,1.2-.37,2.42-.69,3.68-.84,1.08-.13,2.08-.57,3.08-.99.66-.27,1.12-.8,1.33-1.48.26-.83.64-1.59,1.18-2.29.46-.59.34-.91-.35-1.21-.2-.09-.4-.17-.6-.25-1.44-.58-1.85-1.23-1.49-2.76.16-.68-.05-.88-.61-1.1-2.48-.96-2.33-2.61-1.89-4.27.11-.41.34-.79.51-1.19.07-.16.2-.32.04-.49-.14-.14-.34-.13-.51-.07-.65.2-1.3.41-1.96.61-.45.14-.9.28-1.38.26-2-.1-3.08-1.95-2.21-3.8.33-.69.82-1.27,1.27-1.87.13-.17.3-.31.41-.5.25-.44.12-.65-.39-.7-.67-.06-1.32.05-1.85.46-.6.45-1.2.94-1.71,1.48-1.75,1.86-3.28,3.92-5,5.81-1.73,1.9-3.05,4.1-4.76,6.01-.45.51-.79,1.12-1.18,1.68-.56.79-1.33,1.33-2.24,1.63-1.41.46-2.85.77-4.34.77-.96,0-1.68-.61-2.21-1.23-1.32-1.54-3.1-1.9-4.91-2.18-1.21-.19-2.35.21-3.31,1.01-.53.44-1.04.89-1.56,1.34-.83.71-1.27,1.65-1.55,2.67-.3,1.07-.5,2.17-.54,3.29-.02.56.21.91.74,1.03.98.23,1.52,1.2,2.48,1.46.06.02.16.1.15.14-.13.97.68.77,1.13.82,1.35.16,2.72.36,4.04-.24.22-.1.49-.14.74-.05.24.09.46.24.48.53.02.23-.09.43-.3.53-.8.4-1.58.88-2.53.87-1.19,0-2.39,0-3.55-.27-.58-.14-1.06-.04-1.56.2-.45.22-.92.43-1.34.7-.6.39-1.23.37-1.87.21-.65-.17-.84-.53-.49-1.11.46-.74.74-1.56,1.08-2.35.25-.58.27-1.14.13-1.78-.25-1.13-.27-2.28.08-3.41.31-1.02.4-2.1.98-3.05.42-.69.94-1.28,1.53-1.8.59-.52,1.21-1.02,1.84-1.5,1.06-.81,2.37-.88,3.62-.74,1.02.12,2.04.38,3.02.75.69.26,1.31.58,1.77,1.19.19.26.43.49.69.68,1.03.79,2.07,1.42,3.46.8.71-.32,1.54-.37,2.25-.75.24-.13.55-.24.5-.62-.07-.52.28-.86.5-1.27.64-1.2,1.33-2.37,1.81-3.66,1.31-3.58,2.8-7.09,4.67-10.42.36-.63.81-.72,1.44-.33.65.4.86,1.03.91,1.74.05.68.11,1.35.54,1.99.63-.39.99-.98,1.48-1.44.69-.63,1.34-1.31,2.02-1.95.87-.83,1.92-1.08,3.1-.92,1.12.15,1.57.91,1.07,1.92-.35.71-.8,1.37-1.25,2.02-.28.4-.43.84-.49,1.3-.12.91.32,1.47,1.24,1.52.83.04,1.65-.05,2.41-.46.41-.22.83-.43,1.32-.45,1.13-.05,1.69.65,1.34,1.71-.1.31-.27.59-.39.89-.32.74-.48,1.52-.33,2.32.18.96.84,1.41,1.81,1.28.25-.04.49-.12.74-.16.82-.12,1.03.13.83.97-.07.29-.17.55-.35.78-.23.3-.31.65-.37,1.01-.12.74.18,1.15.93,1.32.07.02.14.04.21.04.51,0,1.04-.02,1.29.56.26.59.29,1.18.03,1.78-.31.69-.73,1.32-.98,2.04-.15.44-.06.6.4.61.76.02,1.51.1,2.26.09.68-.01,1.34-.16,1.96-.49,1.11-.59,2.28-1.08,3.23-1.93.18-.16.43-.27.66-.37.87-.37,1.56-.09,1.92.8.28.69.33,1.37-.03,2.08-.38.75-.29.83.54.89.14,0,.29,0,.43.02.64.08.85.38.73,1.03-.16.84-.7,1.49-1.15,2.14.07.33.37.37.54.55.26.28.4.59.36.98-.09,1.01-.98,1.85-2.01,1.83-.46-.01-.83.05-1.14.45-.75.98-1.8,1.42-3.01,1.42-1.55-.01-3.09-.08-4.64-.13-.62-.02-1.21-.2-1.78-.43-.5-.2-.84-.03-1.09.39-.96,1.62-2.33,2.91-3.54,4.33-.43.51-.99.83-1.59,1.1-1.64.75-3.35,1.32-5.03,1.96-.13.05-.25.12-.43.2.35.7.97,1.08,1.49,1.55.21.18.47.15.72.1.35-.07.72-.09,1.06-.21.63-.23,1.11-.28,1.27.57.08.41.49.16.74.23.23.07.55-.06.65.26.11.37-.13.6-.4.81-.41.31-.89.3-1.35.24-.75-.09-1.5-.19-2.23-.37-1.25-.3-2.05-1.21-2.56-2.31-.24-.53-.43-.58-.95-.49-.95.17-1.92.22-3.02.34Zm-5.49-26.15c.06.03.13.06.19.1.08-.06.18-.11.24-.19.96-1.21,1.91-2.42,2.86-3.63.66-.85,1.31-1.71,2.07-2.48.15-.15.4-.34.31-.53-.41-.89-.15-1.86-.35-2.77-.07-.31-.05-.75-.4-.83-.43-.1-.57.34-.74.65-1.13,2.05-2.08,4.19-2.91,6.38-.42,1.1-.82,2.21-1.27,3.3Zm-20.08,14.95c-.55-.42-.96-.76-1.41-1.06-.54-.37-.72-.31-.93.32-.15.44-.24.9-.36,1.35-.05.2-.18.43.04.59.23.17.51.08.7-.07.56-.44,1.21-.76,1.95-1.13Z"/>
  <path class="cls-1" d="m209.48,135.76c-2,.17-3.89-.43-5.74-.91-1.89-.49-3.77-.59-5.66-.46-2.58.18-5.15.49-7.73.77-.64.07-1.28.23-1.9.4-1.29.36-2.55.31-3.8-.17-.44-.17-.91-.15-1.36-.31-1.26-.44-2.07-1.37-2.81-2.41-.06-.09-.13-.18-.17-.28-.45-1.16.49-3.55,1.62-4.13.96-.49,1.91-1.01,2.88-1.48.74-.36,1.5-.68,2.33-.82.88-.15,1.77-.36,2.59-.73,2-.91,4.07-1.66,6.15-2.35,1.7-.56,3.42-1.13,5.25-1.15.33,0,.66-.05.88.26.16.22.47.42.33.74-.13.3-.43.3-.74.32-1.72.12-3.37.52-4.99,1.15-2.31.89-4.56,2.02-6.98,2.58-1.98.47-3.82,1.22-5.68,2.01-1.23.52-1.99,1.36-2.21,2.69-.06.38-.02.71.24,1.01.56.63,1.17,1.12,2.01,1.39,1.29.4,2.59.76,3.92.4,1.82-.5,3.7-.51,5.55-.78,1.46-.21,2.93-.26,4.4-.41,2.29-.22,4.51.18,6.73.71,1.05.25,2.12.42,3.17.64,1.36.28,2.73.19,4.09.1.21-.01.47-.1.54.19.04.18-.15.3-.29.42-.78.67-1.7.71-2.63.6Z"/>
  <path class="cls-1" d="m199.8,150.37c2.41-.01,4.82-.04,7.22.1,1.83.11,3.66.23,5.49.32,1.91.09,3.77.58,5.68.64.64.02,1.27.18,1.9.39,1.89.62,3.88.82,5.84.96,3.14.21,6.21.71,9.22,1.61,2.65.79,5.31,1.57,7.95,2.39,1.55.48,3.03,1.15,4.47,1.89.22.11.44.25.64.4.14.11.28.26.21.46-.09.27-.35.26-.54.19-.88-.32-1.75-.65-2.61-1.01-1.23-.52-2.53-.82-3.79-1.23-2.47-.8-4.98-1.41-7.48-2.07-1.8-.47-3.66-.76-5.5-1.02-2.31-.33-4.67-.39-6.94-.95-2.95-.74-5.96-1-8.95-1.34-1.78-.2-3.59-.18-5.39-.27-1.83-.09-3.65-.29-5.47-.24-1.34.04-2.75-.15-4.01.59-.31.18-.62.22-.86-.12-.27-.37-.13-.67.19-.93.8-.66,1.77-.74,2.74-.76Z"/>
  <path class="cls-1" d="m201.62,112.15s.21.1.37.17c1.79.84,3.6,1.63,5.47,2.3,2.23.79,4.33,1.95,6.57,2.74,1.98.7,3.72,1.87,5.65,2.66,1.77.72,3.38,1.75,5.18,2.39,1.86.66,3.39,1.9,5,2.98,1.68,1.12,3.54,1.93,5.27,2.96.8.48,1.63.92,2.43,1.4,2.69,1.62,5.52,2.93,8.4,4.18,2.25.97,4.55,1.8,6.79,2.79,1.28.56,2.64.93,3.97,1.4.6.22,1.25.38,1.56,1.05.18.39.05.63-.39.63-.14,0-.3,0-.42-.07-1.12-.62-2.39-.8-3.56-1.26-3.49-1.36-6.91-2.87-10.37-4.31-2.01-.84-3.81-2.01-5.71-3.04-1.04-.56-2.07-1.13-3.1-1.7-1.54-.85-3.1-1.67-4.55-2.68-2.07-1.44-4.18-2.81-6.53-3.77-.83-.34-1.58-.86-2.4-1.24-1.95-.9-3.85-1.93-5.81-2.84-2.09-.97-4.19-1.92-6.34-2.76-1.13-.44-2.34-.71-3.46-1.2-1.41-.61-2.82-1.24-4.22-1.89-.24-.11-.54-.29-.37-.67.08-.18.24-.26.57-.21Z"/>
  <path class="cls-1" d="m65.38,94.9c-.35.39-.29.76-.22,1.15.16.83.48,1.58.96,2.27.22.31.52.67.18,1.07-.23.27-.74.03-1.15-.47-.52-.64-.77-1.38-.92-2.16-.12-.61-.4-.94-1.07-1.17-1.82-.62-3.21-1.86-4.27-3.48-1.18-1.81-2.52-3.5-3.62-5.35-.26-.44-.42-.91-.61-1.37-.07-.18-.11-.37.06-.49.24-.17.39.04.54.2.7.78,1.35,1.6,1.89,2.49.95,1.54,2.02,2.98,3.1,4.42.75,1,1.82,1.61,2.95,2.11.25.11.47.07.7-.1,1.46-1.07,1.81-1.01,2.85.39.04.05.11.09.18.14.33-.04.55-.3.82-.46,1.34-.75,2.17-.27,2.34,1.26.14,1.22-.59,2.04-1.14,2.94-.33.54-.86.95-1.11,1.58-.15.4-.48.37-.81.19-.32-.18-.5-.42-.32-.79.23-.46.56-.83.94-1.17.51-.46.98-.96,1.19-1.64.1-.32.36-.72-.03-.99-.31-.22-.62.05-.89.22-.27.17-.51.39-.77.59-.59.43-.96.33-1.26-.33-.15-.32-.14-.71-.54-1.05Z"/>
  <path class="cls-1" d="m61.52,103.13c3.37.97,6.92,1.36,10.44,1.88.71.1,1.42.25,2.12.38,2,.38,4.02.15,6.03.24.6.03,1.12-.25,1.63-.51.43-.21.87-.36,1.35-.28.22.04.43.11.5.35.07.24-.05.47-.22.57-.93.54-1.77,1.26-2.89,1.39-.57.07-1.14.1-1.72.03-1.21-.16-2.44.16-3.66-.1-1.65-.35-3.33-.6-4.98-.94-1.31-.27-2.66-.27-3.96-.54-2.46-.5-4.97-.87-7.27-1.97-.1-.05-.21-.06-.3-.11-.36-.19-.75-.41-.55-.9.21-.51.65-.34,1.02-.2.78.29,1.56.56,2.46.71Z"/>
  <path class="cls-1" d="m79.32,92.27c-1.2,1.79-2.98,2.58-4.73,3.42-.65.31-1.28.66-1.93.97-.5.24-1.03.29-1.58.21-.32-.04-.55-.2-.6-.53-.05-.29.14-.48.37-.6,1.06-.52,2.11-1.08,3.21-1.54,1.14-.48,2.13-1.19,3.19-1.8.35-.2.55-.56.83-.84.46-.46.75-.43,1.35-.19,1.33.52,1.78,1.69,2.25,2.86.05.13.08.28.08.42-.06,2.81.89,5.34,2.11,7.8.33.67.48,1.44,1.15,1.91.2.14.2.37.06.58-.16.24-.39.34-.65.24-.48-.19-.89-.46-1.1-.97-.25-.6-.56-1.17-.76-1.79-1.01-2.98-2.14-5.93-2.77-9.03-.07-.36-.21-.68-.49-1.15Z"/>
  <path class="cls-1" d="m71.07,88.6c2.62.99,5.29.86,7.99.4.21-.04.43-.07.64-.05.31.03.54.22.61.53.07.27-.06.48-.28.65-.29.23-.63.39-.98.44-3.57.57-7.02.3-10.24-1.5-.37-.21-.88-.45-.65-.95.23-.49.78-.25,1.17-.14.59.16,1.15.41,1.73.62Z"/>
  <path class="cls-1" d="m53.26,85.51c.27.08.31.26.34.43.12.85.28,1.71.35,2.56.22,2.91.65,5.78,1.42,8.6.48,1.74,1,3.45,2.04,4.96.14.2.33.45.1.68-.28.28-.64.32-.99.11-.32-.2-.5-.52-.63-.86-.77-2.05-1.37-4.15-1.86-6.28-.53-2.29-.58-4.63-.98-6.93-.16-.94-.24-1.92-.05-2.89.04-.19.11-.33.26-.37Z"/>
  <path class="cls-1" d="m56.22,81.75c1.62.62,3.06,1.58,4.62,2.32.75.35,1.52.66,2.26,1.02.18.09.44.15.42.43-.02.25-.23.36-.43.44-.57.24-1.14.16-1.67-.1-2.03-.99-4.12-1.88-6.09-3-.65-.37-.99-.83-.78-1.13.39-.57.9-.2,1.37-.09.1.02.2.07.3.11Z"/>
  <path class="cls-1" d="m113.61,113.23c-2.34-.75-3.89-2.38-5-4.5-.1-.18-.13-.41-.16-.62-.05-.31.03-.58.31-.74.35-.2.54.05.72.28.31.4.66.77.9,1.21.71,1.3,1.9,2.03,3.15,2.67.45.23.92.41,1.37.63.34.16.67.38.54.81-.12.41-.52.47-.89.44-.32-.03-.63-.12-.95-.18Z"/>
  <path class="cls-1" d="m136.44,112.66c-.44-.21-1-.24-1.43-.6-.21-.18-.35-.38-.25-.65.12-.33.4-.39.7-.34.17.03.34.11.51.17,1.42.52,2.85.97,4.4.81.34-.04.48.28.31.59-.24.45-.68.5-1.11.53-1.06.06-2.07-.16-3.12-.5Z"/>
  <path class="cls-1" d="m117.53,99.05c.03-.08.09-.3.2-.48.14-.23.38-.36.64-.25.23.1.24.34.18.56-.43,1.71.07,3.19,1.12,4.53.11.14.25.29.13.47-.15.23-.39.17-.58.08-.56-.27-1.02-.68-1.31-1.23-.57-1.13-.72-2.32-.39-3.68Z"/>
  <path class="cls-1" d="m125.68,102.69c-.08.22-.2.56-.55.74-.29.15-.61.35-.9.11-.32-.26-.13-.61.03-.88.63-1.06.9-2.17.52-3.39-.05-.17-.06-.36-.05-.53.02-.36.2-.63.58-.65.34-.02.36.32.41.54.29,1.31.25,2.62-.04,4.06Z"/>
  <path class="cls-1" d="m124.84,111.18c-.3-.15-.53-.35-.54-.66-.01-.32.27-.43.51-.47.62-.11,1.05-.62,1.66-.74.33-.06.5.07.41.41-.13.51-1.25,1.44-1.76,1.48-.1,0-.21-.01-.28-.02Z"/>
  <path class="cls-1" d="m70.21,80.34c.04-.31.23-.52.47-.7.23-.17.47-.18.7-.01.43.33.25.79.23,1.2-.02.37-.26.59-.59.69-.26.08-.49,0-.7-.18-.36-.3-.15-.66-.1-1Z"/>
</svg>