<svg width="294" height="225" viewBox="0 0 294 225" fill="none" xmlns="http://www.w3.org/2000/svg">
<path d="M293.01 133.62V224.57H262.869V193.83H231.736V163.793H262.869V133.62C262.869 129.491 262.084 125.596 260.481 121.909C258.91 118.26 256.761 115.048 254.028 112.321C251.296 109.588 248.089 107.439 244.434 105.835C240.753 104.264 236.825 103.479 232.696 103.479C232.391 103.479 232.058 103.479 231.753 103.512H231.736V73.371H231.753C232.058 73.3384 232.391 73.3383 232.696 73.3383C241.058 73.3383 248.874 74.9092 256.177 78.0508C263.486 81.2257 269.9 85.5236 275.365 90.983C280.825 96.4485 285.123 102.83 288.265 110.172C291.439 117.475 293.01 125.291 293.01 133.62Z" fill="#87CE78"/>
<path d="M200.624 133.62V163.793H231.752V193.83H200.624V224.57H170.479V133.62C170.479 125.291 172.049 117.475 175.224 110.172C178.365 102.83 182.669 96.4485 188.129 90.983C193.589 85.5236 200.008 81.2257 207.311 78.0508C214.615 74.9092 222.436 73.3383 230.798 73.3383C231.098 73.3383 231.436 73.3384 231.736 73.371H231.752V103.512H231.736C231.436 103.479 231.098 103.479 230.798 103.479C226.663 103.479 222.742 104.264 219.055 105.835C215.4 107.439 212.193 109.588 209.46 112.321C206.733 115.048 204.584 118.26 203.014 121.909C201.405 125.596 200.624 129.491 200.624 133.62Z" fill="#28735A"/>
<path d="M109.201 95.0351C107.259 99.595 104.581 103.571 101.183 106.958C97.7959 110.351 93.8468 113.024 89.325 114.982C84.8033 116.939 79.9709 117.921 74.8492 117.921H37.4328V43.072H74.8492C79.9709 43.072 84.8033 44.0484 89.325 46.012C93.8468 47.9697 97.7959 50.6428 101.183 54.0296C104.581 57.417 107.259 61.3928 109.201 65.9582C111.164 70.5236 112.14 75.3668 112.14 80.4885C112.14 85.6265 111.164 90.4697 109.201 95.0351ZM129.223 131.737C133.576 127.134 137.241 122.094 140.252 116.618C143.235 111.131 145.543 105.349 147.152 99.273C148.761 93.1864 149.562 86.9303 149.562 80.4885C149.562 73.6325 148.679 67.0218 146.89 60.6785C145.112 54.3244 142.592 48.3735 139.33 42.8045C136.079 37.2469 132.163 32.1907 127.598 27.6144C123.033 23.0545 117.993 19.1495 112.462 15.882C106.948 12.6205 101.014 10.1005 94.6706 8.32807C88.3323 6.54421 81.7215 5.6501 74.8492 5.6501H0V224.542H37.4328V155.212L79.2729 154.945L109.648 224.542H149.535L114.622 143.737C120.011 140.35 124.871 136.346 129.223 131.737Z" fill="#87CE78"/>
<path d="M259.798 29.1145C259.798 45.1932 246.763 58.2295 230.683 58.2295C214.605 58.2295 201.568 45.1932 201.568 29.1145H259.798Z" fill="#EEBB13"/>
<path d="M201.568 29.115C201.568 13.0362 214.605 -3.79799e-05 230.683 -3.79799e-05C246.763 -3.79799e-05 259.798 13.0362 259.798 29.115H201.568Z" fill="#28735A"/>
</svg>
