<svg width="344" height="219" viewBox="0 0 344 219" fill="none" xmlns="http://www.w3.org/2000/svg">
<path d="M304.406 128.685C302.651 134.843 300.227 140.614 297.105 145.998C293.966 151.382 290.19 156.296 285.744 160.722C281.298 165.168 276.427 168.961 271.06 172.142C265.721 175.303 259.945 177.75 253.75 179.483C247.55 181.196 241.126 182.074 234.457 182.074C227.81 182.074 221.407 181.196 215.223 179.483C209.066 177.75 203.296 175.303 197.891 172.142C192.53 168.961 187.615 165.168 183.169 160.722C178.745 156.296 174.931 151.382 171.765 145.998C168.605 140.614 166.159 134.843 164.426 128.685C162.694 122.506 161.838 116.102 161.838 109.454C161.838 102.785 162.694 96.3616 164.426 90.1617C166.159 83.9623 168.605 78.1912 171.765 72.8483C174.931 67.4847 178.745 62.5903 183.169 58.1655C187.615 53.7194 192.53 49.9267 197.891 46.8063C203.296 43.6657 209.066 41.2389 215.223 39.5057C221.407 37.7927 227.81 36.9155 234.457 36.9155C241.126 36.9155 247.55 37.7927 253.75 39.5057C259.945 41.2389 265.721 43.6657 271.06 46.8063C276.427 49.9267 281.298 53.7194 285.744 58.1655C290.19 62.5903 293.966 67.4847 297.105 72.8483C300.227 78.1912 302.651 83.9623 304.406 90.1617C306.116 96.3616 306.972 102.785 306.972 109.454C306.972 116.102 306.116 122.506 304.406 128.685ZM339.909 80.3532C337.299 71.0127 333.648 62.3053 328.919 54.2294C324.206 46.1743 318.496 38.792 311.81 32.1028C305.119 25.4141 297.737 19.704 289.662 14.973C281.603 10.2622 272.897 6.59145 263.558 3.98104C254.219 1.39079 244.509 0.0858668 234.479 0.0858668C224.442 0.0858668 214.798 1.39079 205.498 3.98104C196.197 6.59145 187.49 10.2622 179.377 14.973C171.259 19.704 163.854 25.4141 157.169 32.1028C150.478 38.792 144.746 46.1743 139.973 54.2294C135.206 62.3053 131.511 71.0127 128.902 80.3532C126.292 89.6931 125.006 99.3796 125.006 109.413C125.006 119.446 126.292 129.112 128.902 138.412C131.511 147.711 135.206 156.419 139.973 164.535C144.746 172.652 150.478 180.054 157.169 186.744C163.854 193.432 171.259 199.163 179.377 203.935C187.49 208.707 196.197 212.398 205.498 215.008C214.798 217.598 224.442 218.903 234.479 218.903C244.509 218.903 254.219 217.598 263.558 215.008C272.897 212.398 281.603 208.707 289.662 203.935C297.737 199.163 305.119 193.432 311.81 186.744C318.496 180.054 324.206 172.652 328.919 164.535C333.648 156.419 337.299 147.711 339.909 138.412C342.518 129.112 343.826 119.446 343.826 109.413C343.826 99.3796 342.518 89.6931 339.909 80.3532Z" fill="#28735A"/>
<path d="M221.641 127.4V89.4036C221.641 88.3634 222.698 87.7102 223.548 88.2229L254.681 106.94C255.542 107.456 255.547 108.765 254.697 109.293L223.564 128.571C222.714 129.099 221.641 128.447 221.641 127.4Z" fill="#D85D42"/>
<path d="M132.356 0.000335907V37.3067H85.1662V218.959H47.7781V37.3067H0.408203V0.000335907H132.356Z" fill="#87CE78"/>
</svg>
