<svg width="477" height="219" viewBox="0 0 477 219" fill="none" xmlns="http://www.w3.org/2000/svg">
<path d="M72.3462 88.0474L127.825 3.88164e-05H88.5791L38.3901 76.0643V3.88164e-05H0.561193L0 218.891H38.0812V142.448L48.998 125.231L92.0063 218.891H133.677L72.3462 88.0474Z" fill="#28735A"/>
<path d="M260.949 111.702C260.949 109.48 260.524 107.38 259.674 105.407C258.824 103.432 257.669 101.719 256.215 100.264C254.76 98.8093 253.049 97.658 251.077 96.8058C249.099 95.9559 247.001 95.5298 244.778 95.5298C242.533 95.5298 240.43 95.9559 238.463 96.8058C236.507 97.658 234.791 98.8093 233.325 100.264C231.859 101.719 230.699 103.432 229.849 105.407C228.999 107.38 228.568 109.48 228.568 111.702C228.568 113.924 228.999 116.01 229.849 117.96C230.699 119.911 231.859 121.62 233.325 123.086C234.791 124.552 236.507 125.71 238.463 126.562C240.43 127.413 242.533 127.838 244.778 127.838C247.001 127.838 249.099 127.413 251.077 126.562C253.049 125.71 254.76 124.552 256.215 123.086C257.669 121.62 258.824 119.911 259.674 117.96C260.524 116.01 260.949 113.924 260.949 111.702ZM271.056 111.702C271.056 114.114 270.746 116.436 270.119 118.67C269.493 120.904 268.61 122.998 267.477 124.948C266.343 126.899 264.97 128.678 263.363 130.285C261.756 131.893 259.985 133.27 258.04 134.416C256.106 135.564 254.013 136.45 251.768 137.077C249.518 137.703 247.192 138.016 244.778 138.016C242.364 138.016 240.049 137.703 237.809 137.077C235.575 136.45 233.483 135.564 231.532 134.416C229.582 133.27 227.8 131.893 226.198 130.285C224.586 128.678 223.213 126.899 222.063 124.948C220.919 122.998 220.031 120.904 219.404 118.67C218.777 116.436 218.467 114.114 218.467 111.702C218.467 109.29 218.777 106.962 219.404 104.716C220.031 102.469 220.919 100.377 222.063 98.4382C223.213 96.4991 224.586 94.7256 226.198 93.1177C227.8 91.5103 229.582 90.1384 231.532 89.004C233.483 87.8691 235.575 86.9891 237.809 86.362C240.049 85.736 242.364 85.4216 244.778 85.4216C247.192 85.4216 249.518 85.736 251.768 86.362C254.013 86.9891 256.106 87.8691 258.04 89.004C259.985 90.1384 261.756 91.5103 263.363 93.1177C264.97 94.7256 266.343 96.4991 267.477 98.4382C268.61 100.377 269.493 102.469 270.119 104.716C270.746 106.962 271.056 109.29 271.056 111.702Z" fill="#D85D42"/>
<path d="M476.54 218.891L476.289 3.88164e-05H439.762L441.053 123.394L386.867 3.88164e-05H354.748L355.02 218.891H392.676L390.556 102.507L447.112 218.891H476.54Z" fill="#28735A"/>
<path d="M180.556 191.925V143.108H153.58V218.858H153.624V218.902H229.37V191.925H180.556Z" fill="#EEBB13"/>
<path d="M310.064 191.925H261.25V218.902H336.996V218.858H337.045V143.108H310.064V191.925Z" fill="#EEBB13"/>
<path d="M310.066 26.9774V75.7944H337.047V0.0445245H336.998V0.000387805H261.252V26.9774H310.066Z" fill="#EEBB13"/>
<path d="M180.556 26.9774H229.37V0.000387805H153.624V0.0439658H153.58V75.7944H180.556V26.9774Z" fill="#EEBB13"/>
<path d="M282.08 72.756C282.08 76.9274 278.702 80.3088 274.528 80.3088C270.355 80.3088 266.977 76.9274 266.977 72.756C266.977 68.5846 270.355 65.2027 274.528 65.2027C278.702 65.2027 282.08 68.5846 282.08 72.756Z" fill="#D85D42"/>
</svg>
