<svg width="306" height="12" viewBox="0 0 306 12" fill="none" xmlns="http://www.w3.org/2000/svg">
<path d="M0.56753 0.600999H6.14453V1.81H1.82853V4.813H5.61153V6.009H1.82853V10H0.56753V0.600999ZM9.5228 0.600999H10.7838V10H9.5228V0.600999ZM22.9217 10.299L15.6547 2.928L16.0187 3.019L16.0447 10H14.7837V0.314999H14.8487L22.0377 7.712L21.7387 7.647L21.7127 0.600999H22.9607V10.299H22.9217ZM26.9636 10V0.600999H29.5246C30.452 0.600999 31.2406 0.743999 31.8906 1.03C32.5493 1.316 33.078 1.693 33.4766 2.161C33.8753 2.629 34.1656 3.149 34.3476 3.721C34.5383 4.28433 34.6336 4.84767 34.6336 5.411C34.6336 6.12167 34.508 6.75867 34.2566 7.322C34.014 7.88533 33.676 8.36633 33.2426 8.765C32.8093 9.16367 32.311 9.47133 31.7476 9.688C31.193 9.896 30.6036 10 29.9796 10H26.9636ZM28.2246 8.791H29.7326C30.2526 8.791 30.7293 8.713 31.1626 8.557C31.6046 8.401 31.986 8.17567 32.3066 7.881C32.636 7.58633 32.8916 7.22667 33.0736 6.802C33.2556 6.36867 33.3466 5.879 33.3466 5.333C33.3466 4.75233 33.2513 4.24533 33.0606 3.812C32.87 3.37 32.61 3.00167 32.2806 2.707C31.9513 2.41233 31.5786 2.19133 31.1626 2.044C30.7466 1.888 30.309 1.81 29.8496 1.81H28.2246V8.791ZM38.0517 0.600999H39.3127V10H38.0517V0.600999ZM51.4506 10.299L44.1836 2.928L44.5476 3.019L44.5736 10H43.3126V0.314999H43.3776L50.5666 7.712L50.2676 7.647L50.2416 0.600999H51.4896V10.299H51.4506ZM62.8505 9.194C62.7205 9.30667 62.5385 9.41933 62.3045 9.532C62.0705 9.636 61.8105 9.73133 61.5245 9.818C61.2472 9.90467 60.9569 9.974 60.6535 10.026C60.3589 10.078 60.0815 10.104 59.8215 10.104C59.0675 10.104 58.3872 9.987 57.7805 9.753C57.1825 9.519 56.6669 9.194 56.2335 8.778C55.8089 8.362 55.4795 7.87233 55.2455 7.309C55.0202 6.74567 54.9075 6.13467 54.9075 5.476C54.9075 4.696 55.0332 3.99833 55.2845 3.383C55.5445 2.759 55.8955 2.23467 56.3375 1.81C56.7882 1.37667 57.3039 1.05167 57.8845 0.834999C58.4652 0.609666 59.0805 0.497 59.7305 0.497C60.2765 0.497 60.7835 0.562 61.2515 0.692C61.7195 0.822 62.1312 0.986666 62.4865 1.186L62.0575 2.343C61.8842 2.239 61.6675 2.14367 61.4075 2.057C61.1562 1.97033 60.8962 1.901 60.6275 1.849C60.3589 1.78833 60.1075 1.758 59.8735 1.758C59.3189 1.758 58.8162 1.84467 58.3655 2.018C57.9149 2.18267 57.5292 2.42533 57.2085 2.746C56.8879 3.058 56.6409 3.43933 56.4675 3.89C56.2942 4.332 56.2075 4.83033 56.2075 5.385C56.2075 5.89633 56.2942 6.36433 56.4675 6.789C56.6409 7.21367 56.8879 7.582 57.2085 7.894C57.5292 8.19733 57.9105 8.43567 58.3525 8.609C58.8032 8.77367 59.2972 8.856 59.8345 8.856C60.1552 8.856 60.4715 8.82567 60.7835 8.765C61.0955 8.69567 61.3642 8.60033 61.5895 8.479V6.607H59.7175V5.398H62.8505V9.194ZM76.8305 2.278C76.5098 2.11333 76.1588 1.97033 75.7775 1.849C75.3962 1.72767 75.0235 1.667 74.6595 1.667C74.1568 1.667 73.7538 1.784 73.4505 2.018C73.1558 2.252 73.0085 2.564 73.0085 2.954C73.0085 3.24867 73.1038 3.5 73.2945 3.708C73.4852 3.90733 73.7365 4.08067 74.0485 4.228C74.3605 4.37533 74.6855 4.514 75.0235 4.644C75.3182 4.75667 75.6085 4.88233 75.8945 5.021C76.1805 5.15967 76.4362 5.333 76.6615 5.541C76.8955 5.749 77.0775 6.00467 77.2075 6.308C77.3462 6.61133 77.4155 6.98833 77.4155 7.439C77.4155 7.933 77.2898 8.38367 77.0385 8.791C76.7958 9.19833 76.4448 9.519 75.9855 9.753C75.5262 9.987 74.9802 10.104 74.3475 10.104C73.9315 10.104 73.5328 10.0563 73.1515 9.961C72.7788 9.86567 72.4322 9.74433 72.1115 9.597C71.7908 9.441 71.5048 9.28067 71.2535 9.116L71.8125 8.128C72.0205 8.27533 72.2588 8.41833 72.5275 8.557C72.7962 8.687 73.0778 8.79533 73.3725 8.882C73.6672 8.96 73.9532 8.999 74.2305 8.999C74.5252 8.999 74.8155 8.947 75.1015 8.843C75.3962 8.73033 75.6388 8.56133 75.8295 8.336C76.0202 8.11067 76.1155 7.81167 76.1155 7.439C76.1155 7.11833 76.0288 6.854 75.8555 6.646C75.6908 6.42933 75.4698 6.24733 75.1925 6.1C74.9152 5.944 74.6205 5.80533 74.3085 5.684C74.0138 5.57133 73.7148 5.45 73.4115 5.32C73.1082 5.18133 72.8265 5.01667 72.5665 4.826C72.3065 4.62667 72.0985 4.384 71.9425 4.098C71.7865 3.812 71.7085 3.46533 71.7085 3.058C71.7085 2.564 71.8255 2.135 72.0595 1.771C72.3022 1.39833 72.6315 1.108 73.0475 0.899999C73.4635 0.683333 73.9402 0.566333 74.4775 0.548999C75.0842 0.548999 75.6172 0.622666 76.0765 0.77C76.5445 0.917333 76.9562 1.09933 77.3115 1.316L76.8305 2.278ZM80.0824 0.600999H86.3224V1.81H83.8004V10H82.5394V1.81H80.0824V0.600999ZM88.6466 5.307C88.6466 4.657 88.7679 4.046 89.0106 3.474C89.2619 2.89333 89.6086 2.382 90.0506 1.94C90.4926 1.48933 90.9996 1.13833 91.5716 0.887C92.1523 0.627 92.7763 0.497 93.4436 0.497C94.1023 0.497 94.7176 0.627 95.2896 0.887C95.8703 1.13833 96.3816 1.48933 96.8236 1.94C97.2743 2.382 97.6253 2.89333 97.8766 3.474C98.1279 4.046 98.2536 4.657 98.2536 5.307C98.2536 5.97433 98.1279 6.59833 97.8766 7.179C97.6253 7.75967 97.2743 8.271 96.8236 8.713C96.3816 9.14633 95.8703 9.48867 95.2896 9.74C94.7176 9.98267 94.1023 10.104 93.4436 10.104C92.7763 10.104 92.1523 9.98267 91.5716 9.74C90.9996 9.49733 90.4926 9.15933 90.0506 8.726C89.6086 8.29267 89.2619 7.78567 89.0106 7.205C88.7679 6.62433 88.6466 5.99167 88.6466 5.307ZM89.9466 5.32C89.9466 5.814 90.0376 6.27767 90.2196 6.711C90.4016 7.13567 90.6529 7.51267 90.9736 7.842C91.2943 8.17133 91.6669 8.43133 92.0916 8.622C92.5163 8.804 92.9756 8.895 93.4696 8.895C93.9549 8.895 94.4099 8.804 94.8346 8.622C95.2593 8.43133 95.6276 8.17133 95.9396 7.842C96.2516 7.51267 96.4986 7.13567 96.6806 6.711C96.8626 6.27767 96.9536 5.80967 96.9536 5.307C96.9536 4.813 96.8626 4.34933 96.6806 3.916C96.4986 3.474 96.2473 3.08833 95.9266 2.759C95.6059 2.42967 95.2333 2.174 94.8086 1.992C94.3839 1.80133 93.9289 1.706 93.4436 1.706C92.9496 1.706 92.4903 1.80133 92.0656 1.992C91.6409 2.18267 91.2683 2.44267 90.9476 2.772C90.6269 3.10133 90.3799 3.487 90.2066 3.929C90.0333 4.36233 89.9466 4.826 89.9466 5.32ZM104.174 0.600999C104.651 0.600999 105.088 0.666 105.487 0.796C105.894 0.917333 106.245 1.10367 106.54 1.355C106.843 1.59767 107.077 1.901 107.242 2.265C107.415 2.62033 107.502 3.03633 107.502 3.513C107.502 3.88567 107.446 4.24967 107.333 4.605C107.229 4.96033 107.051 5.28533 106.8 5.58C106.549 5.866 106.219 6.1 105.812 6.282C105.413 6.45533 104.919 6.542 104.33 6.542H102.939V10H101.678V0.600999H104.174ZM104.304 5.333C104.677 5.333 104.984 5.27667 105.227 5.164C105.478 5.05133 105.673 4.90833 105.812 4.735C105.951 4.553 106.05 4.358 106.111 4.15C106.172 3.942 106.202 3.747 106.202 3.565C106.202 3.37433 106.167 3.17933 106.098 2.98C106.037 2.772 105.933 2.58133 105.786 2.408C105.647 2.23467 105.461 2.09167 105.227 1.979C105.002 1.86633 104.724 1.81 104.395 1.81H102.939V5.333H104.304ZM105.851 6.048L108.308 10H106.852L104.356 6.087L105.851 6.048ZM111.547 0.600999H112.808V10H111.547V0.600999ZM116.808 0.600999H122.918V1.81H118.069V4.67H122.398V5.879H118.069V8.791H123.1V10H116.808V0.600999ZM131.451 2.278C131.13 2.11333 130.779 1.97033 130.398 1.849C130.016 1.72767 129.644 1.667 129.28 1.667C128.777 1.667 128.374 1.784 128.071 2.018C127.776 2.252 127.629 2.564 127.629 2.954C127.629 3.24867 127.724 3.5 127.915 3.708C128.105 3.90733 128.357 4.08067 128.669 4.228C128.981 4.37533 129.306 4.514 129.644 4.644C129.938 4.75667 130.229 4.88233 130.515 5.021C130.801 5.15967 131.056 5.333 131.282 5.541C131.516 5.749 131.698 6.00467 131.828 6.308C131.966 6.61133 132.036 6.98833 132.036 7.439C132.036 7.933 131.91 8.38367 131.659 8.791C131.416 9.19833 131.065 9.519 130.606 9.753C130.146 9.987 129.6 10.104 128.968 10.104C128.552 10.104 128.153 10.0563 127.772 9.961C127.399 9.86567 127.052 9.74433 126.732 9.597C126.411 9.441 126.125 9.28067 125.874 9.116L126.433 8.128C126.641 8.27533 126.879 8.41833 127.148 8.557C127.416 8.687 127.698 8.79533 127.993 8.882C128.287 8.96 128.573 8.999 128.851 8.999C129.145 8.999 129.436 8.947 129.722 8.843C130.016 8.73033 130.259 8.56133 130.45 8.336C130.64 8.11067 130.736 7.81167 130.736 7.439C130.736 7.11833 130.649 6.854 130.476 6.646C130.311 6.42933 130.09 6.24733 129.813 6.1C129.535 5.944 129.241 5.80533 128.929 5.684C128.634 5.57133 128.335 5.45 128.032 5.32C127.728 5.18133 127.447 5.01667 127.187 4.826C126.927 4.62667 126.719 4.384 126.563 4.098C126.407 3.812 126.329 3.46533 126.329 3.058C126.329 2.564 126.446 2.135 126.68 1.771C126.922 1.39833 127.252 1.108 127.668 0.899999C128.084 0.683333 128.56 0.566333 129.098 0.548999C129.704 0.548999 130.237 0.622666 130.697 0.77C131.165 0.917333 131.576 1.09933 131.932 1.316L131.451 2.278ZM136.248 8.869C136.058 9.31967 135.867 9.766 135.676 10.208C135.494 10.6587 135.308 11.1137 135.117 11.573H134.142C134.316 11.1137 134.485 10.6587 134.649 10.208C134.814 9.766 134.983 9.31967 135.156 8.869H136.248ZM149.671 2.278C149.35 2.11333 148.999 1.97033 148.618 1.849C148.237 1.72767 147.864 1.667 147.5 1.667C146.997 1.667 146.594 1.784 146.291 2.018C145.996 2.252 145.849 2.564 145.849 2.954C145.849 3.24867 145.944 3.5 146.135 3.708C146.326 3.90733 146.577 4.08067 146.889 4.228C147.201 4.37533 147.526 4.514 147.864 4.644C148.159 4.75667 148.449 4.88233 148.735 5.021C149.021 5.15967 149.277 5.333 149.502 5.541C149.736 5.749 149.918 6.00467 150.048 6.308C150.187 6.61133 150.256 6.98833 150.256 7.439C150.256 7.933 150.13 8.38367 149.879 8.791C149.636 9.19833 149.285 9.519 148.826 9.753C148.367 9.987 147.821 10.104 147.188 10.104C146.772 10.104 146.373 10.0563 145.992 9.961C145.619 9.86567 145.273 9.74433 144.952 9.597C144.631 9.441 144.345 9.28067 144.094 9.116L144.653 8.128C144.861 8.27533 145.099 8.41833 145.368 8.557C145.637 8.687 145.918 8.79533 146.213 8.882C146.508 8.96 146.794 8.999 147.071 8.999C147.366 8.999 147.656 8.947 147.942 8.843C148.237 8.73033 148.479 8.56133 148.67 8.336C148.861 8.11067 148.956 7.81167 148.956 7.439C148.956 7.11833 148.869 6.854 148.696 6.646C148.531 6.42933 148.31 6.24733 148.033 6.1C147.756 5.944 147.461 5.80533 147.149 5.684C146.854 5.57133 146.555 5.45 146.252 5.32C145.949 5.18133 145.667 5.01667 145.407 4.826C145.147 4.62667 144.939 4.384 144.783 4.098C144.627 3.812 144.549 3.46533 144.549 3.058C144.549 2.564 144.666 2.135 144.9 1.771C145.143 1.39833 145.472 1.108 145.888 0.899999C146.304 0.683333 146.781 0.566333 147.318 0.548999C147.925 0.548999 148.458 0.622666 148.917 0.77C149.385 0.917333 149.797 1.09933 150.152 1.316L149.671 2.278ZM161.112 0.600999V10H159.864V5.879H154.937V10H153.676V0.600999H154.937V4.683H159.864V0.600999H161.112ZM164.183 10L168.291 0.211H168.369L172.464 10H171.021L167.953 2.187L168.85 1.602L165.418 10H164.183ZM166.588 6.438H170.085L170.501 7.53H166.224L166.588 6.438ZM178.03 0.600999C178.507 0.600999 178.945 0.666 179.343 0.796C179.751 0.917333 180.102 1.10367 180.396 1.355C180.7 1.59767 180.934 1.901 181.098 2.265C181.272 2.62033 181.358 3.03633 181.358 3.513C181.358 3.88567 181.302 4.24967 181.189 4.605C181.085 4.96033 180.908 5.28533 180.656 5.58C180.405 5.866 180.076 6.1 179.668 6.282C179.27 6.45533 178.776 6.542 178.186 6.542H176.795V10H175.534V0.600999H178.03ZM178.16 5.333C178.533 5.333 178.841 5.27667 179.083 5.164C179.335 5.05133 179.53 4.90833 179.668 4.735C179.807 4.553 179.907 4.358 179.967 4.15C180.028 3.942 180.058 3.747 180.058 3.565C180.058 3.37433 180.024 3.17933 179.954 2.98C179.894 2.772 179.79 2.58133 179.642 2.408C179.504 2.23467 179.317 2.09167 179.083 1.979C178.858 1.86633 178.581 1.81 178.251 1.81H176.795V5.333H178.16ZM179.707 6.048L182.164 10H180.708L178.212 6.087L179.707 6.048ZM185.404 0.600999H186.665V10H185.404V0.600999ZM198.803 10.299L191.536 2.928L191.9 3.019L191.926 10H190.665V0.314999H190.73L197.919 7.712L197.62 7.647L197.594 0.600999H198.842V10.299H198.803ZM210.202 9.194C210.072 9.30667 209.89 9.41933 209.656 9.532C209.422 9.636 209.162 9.73133 208.876 9.818C208.599 9.90467 208.309 9.974 208.005 10.026C207.711 10.078 207.433 10.104 207.173 10.104C206.419 10.104 205.739 9.987 205.132 9.753C204.534 9.519 204.019 9.194 203.585 8.778C203.161 8.362 202.831 7.87233 202.597 7.309C202.372 6.74567 202.259 6.13467 202.259 5.476C202.259 4.696 202.385 3.99833 202.636 3.383C202.896 2.759 203.247 2.23467 203.689 1.81C204.14 1.37667 204.656 1.05167 205.236 0.834999C205.817 0.609666 206.432 0.497 207.082 0.497C207.628 0.497 208.135 0.562 208.603 0.692C209.071 0.822 209.483 0.986666 209.838 1.186L209.409 2.343C209.236 2.239 209.019 2.14367 208.759 2.057C208.508 1.97033 208.248 1.901 207.979 1.849C207.711 1.78833 207.459 1.758 207.225 1.758C206.671 1.758 206.168 1.84467 205.717 2.018C205.267 2.18267 204.881 2.42533 204.56 2.746C204.24 3.058 203.993 3.43933 203.819 3.89C203.646 4.332 203.559 4.83033 203.559 5.385C203.559 5.89633 203.646 6.36433 203.819 6.789C203.993 7.21367 204.24 7.582 204.56 7.894C204.881 8.19733 205.262 8.43567 205.704 8.609C206.155 8.77367 206.649 8.856 207.186 8.856C207.507 8.856 207.823 8.82567 208.135 8.765C208.447 8.69567 208.716 8.60033 208.941 8.479V6.607H207.069V5.398H210.202V9.194ZM224.182 2.278C223.862 2.11333 223.511 1.97033 223.129 1.849C222.748 1.72767 222.375 1.667 222.011 1.667C221.509 1.667 221.106 1.784 220.802 2.018C220.508 2.252 220.36 2.564 220.36 2.954C220.36 3.24867 220.456 3.5 220.646 3.708C220.837 3.90733 221.088 4.08067 221.4 4.228C221.712 4.37533 222.037 4.514 222.375 4.644C222.67 4.75667 222.96 4.88233 223.246 5.021C223.532 5.15967 223.788 5.333 224.013 5.541C224.247 5.749 224.429 6.00467 224.559 6.308C224.698 6.61133 224.767 6.98833 224.767 7.439C224.767 7.933 224.642 8.38367 224.39 8.791C224.148 9.19833 223.797 9.519 223.337 9.753C222.878 9.987 222.332 10.104 221.699 10.104C221.283 10.104 220.885 10.0563 220.503 9.961C220.131 9.86567 219.784 9.74433 219.463 9.597C219.143 9.441 218.857 9.28067 218.605 9.116L219.164 8.128C219.372 8.27533 219.611 8.41833 219.879 8.557C220.148 8.687 220.43 8.79533 220.724 8.882C221.019 8.96 221.305 8.999 221.582 8.999C221.877 8.999 222.167 8.947 222.453 8.843C222.748 8.73033 222.991 8.56133 223.181 8.336C223.372 8.11067 223.467 7.81167 223.467 7.439C223.467 7.11833 223.381 6.854 223.207 6.646C223.043 6.42933 222.822 6.24733 222.544 6.1C222.267 5.944 221.972 5.80533 221.66 5.684C221.366 5.57133 221.067 5.45 220.763 5.32C220.46 5.18133 220.178 5.01667 219.918 4.826C219.658 4.62667 219.45 4.384 219.294 4.098C219.138 3.812 219.06 3.46533 219.06 3.058C219.06 2.564 219.177 2.135 219.411 1.771C219.654 1.39833 219.983 1.108 220.399 0.899999C220.815 0.683333 221.292 0.566333 221.829 0.548999C222.436 0.548999 222.969 0.622666 223.428 0.77C223.896 0.917333 224.308 1.09933 224.663 1.316L224.182 2.278ZM227.602 5.307C227.602 4.657 227.723 4.046 227.966 3.474C228.217 2.89333 228.564 2.382 229.006 1.94C229.448 1.48933 229.955 1.13833 230.527 0.887C231.108 0.627 231.732 0.497 232.399 0.497C233.058 0.497 233.673 0.627 234.245 0.887C234.826 1.13833 235.337 1.48933 235.779 1.94C236.23 2.382 236.581 2.89333 236.832 3.474C237.083 4.046 237.209 4.657 237.209 5.307C237.209 5.97433 237.083 6.59833 236.832 7.179C236.581 7.75967 236.23 8.271 235.779 8.713C235.337 9.14633 234.826 9.48867 234.245 9.74C233.673 9.98267 233.058 10.104 232.399 10.104C231.732 10.104 231.108 9.98267 230.527 9.74C229.955 9.49733 229.448 9.15933 229.006 8.726C228.564 8.29267 228.217 7.78567 227.966 7.205C227.723 6.62433 227.602 5.99167 227.602 5.307ZM228.902 5.32C228.902 5.814 228.993 6.27767 229.175 6.711C229.357 7.13567 229.608 7.51267 229.929 7.842C230.25 8.17133 230.622 8.43133 231.047 8.622C231.472 8.804 231.931 8.895 232.425 8.895C232.91 8.895 233.365 8.804 233.79 8.622C234.215 8.43133 234.583 8.17133 234.895 7.842C235.207 7.51267 235.454 7.13567 235.636 6.711C235.818 6.27767 235.909 5.80967 235.909 5.307C235.909 4.813 235.818 4.34933 235.636 3.916C235.454 3.474 235.203 3.08833 234.882 2.759C234.561 2.42967 234.189 2.174 233.764 1.992C233.339 1.80133 232.884 1.706 232.399 1.706C231.905 1.706 231.446 1.80133 231.021 1.992C230.596 2.18267 230.224 2.44267 229.903 2.772C229.582 3.10133 229.335 3.487 229.162 3.929C228.989 4.36233 228.902 4.826 228.902 5.32ZM240.633 0.600999H241.894V8.791H246.665V10H240.633V0.600999ZM251.151 6.672C251.151 7.09667 251.251 7.478 251.45 7.816C251.658 8.14533 251.931 8.40533 252.269 8.596C252.607 8.78667 252.989 8.882 253.413 8.882C253.855 8.882 254.25 8.78667 254.596 8.596C254.943 8.40533 255.216 8.14533 255.415 7.816C255.615 7.478 255.714 7.09667 255.714 6.672V0.600999H256.949V6.711C256.949 7.39567 256.789 7.99367 256.468 8.505C256.156 9.01633 255.732 9.41067 255.194 9.688C254.666 9.96533 254.072 10.104 253.413 10.104C252.755 10.104 252.161 9.96533 251.632 9.688C251.104 9.41067 250.683 9.01633 250.371 8.505C250.059 7.99367 249.903 7.39567 249.903 6.711V0.600999H251.151V6.672ZM260.14 0.600999H266.38V1.81H263.858V10H262.597V1.81H260.14V0.600999ZM269.683 0.600999H270.944V10H269.683V0.600999ZM274.359 5.307C274.359 4.657 274.48 4.046 274.723 3.474C274.974 2.89333 275.321 2.382 275.763 1.94C276.205 1.48933 276.712 1.13833 277.284 0.887C277.864 0.627 278.488 0.497 279.156 0.497C279.814 0.497 280.43 0.627 281.002 0.887C281.582 1.13833 282.094 1.48933 282.536 1.94C282.986 2.382 283.337 2.89333 283.589 3.474C283.84 4.046 283.966 4.657 283.966 5.307C283.966 5.97433 283.84 6.59833 283.589 7.179C283.337 7.75967 282.986 8.271 282.536 8.713C282.094 9.14633 281.582 9.48867 281.002 9.74C280.43 9.98267 279.814 10.104 279.156 10.104C278.488 10.104 277.864 9.98267 277.284 9.74C276.712 9.49733 276.205 9.15933 275.763 8.726C275.321 8.29267 274.974 7.78567 274.723 7.205C274.48 6.62433 274.359 5.99167 274.359 5.307ZM275.659 5.32C275.659 5.814 275.75 6.27767 275.932 6.711C276.114 7.13567 276.365 7.51267 276.686 7.842C277.006 8.17133 277.379 8.43133 277.804 8.622C278.228 8.804 278.688 8.895 279.182 8.895C279.667 8.895 280.122 8.804 280.547 8.622C280.971 8.43133 281.34 8.17133 281.652 7.842C281.964 7.51267 282.211 7.13567 282.393 6.711C282.575 6.27767 282.666 5.80967 282.666 5.307C282.666 4.813 282.575 4.34933 282.393 3.916C282.211 3.474 281.959 3.08833 281.639 2.759C281.318 2.42967 280.945 2.174 280.521 1.992C280.096 1.80133 279.641 1.706 279.156 1.706C278.662 1.706 278.202 1.80133 277.778 1.992C277.353 2.18267 276.98 2.44267 276.66 2.772C276.339 3.10133 276.092 3.487 275.919 3.929C275.745 4.36233 275.659 4.826 275.659 5.32ZM295.528 10.299L288.261 2.928L288.625 3.019L288.651 10H287.39V0.314999H287.455L294.644 7.712L294.345 7.647L294.319 0.600999H295.567V10.299H295.528ZM304.432 2.278C304.111 2.11333 303.76 1.97033 303.379 1.849C302.998 1.72767 302.625 1.667 302.261 1.667C301.758 1.667 301.355 1.784 301.052 2.018C300.757 2.252 300.61 2.564 300.61 2.954C300.61 3.24867 300.705 3.5 300.896 3.708C301.087 3.90733 301.338 4.08067 301.65 4.228C301.962 4.37533 302.287 4.514 302.625 4.644C302.92 4.75667 303.21 4.88233 303.496 5.021C303.782 5.15967 304.038 5.333 304.263 5.541C304.497 5.749 304.679 6.00467 304.809 6.308C304.948 6.61133 305.017 6.98833 305.017 7.439C305.017 7.933 304.891 8.38367 304.64 8.791C304.397 9.19833 304.046 9.519 303.587 9.753C303.128 9.987 302.582 10.104 301.949 10.104C301.533 10.104 301.134 10.0563 300.753 9.961C300.38 9.86567 300.034 9.74433 299.713 9.597C299.392 9.441 299.106 9.28067 298.855 9.116L299.414 8.128C299.622 8.27533 299.86 8.41833 300.129 8.557C300.398 8.687 300.679 8.79533 300.974 8.882C301.269 8.96 301.555 8.999 301.832 8.999C302.127 8.999 302.417 8.947 302.703 8.843C302.998 8.73033 303.24 8.56133 303.431 8.336C303.622 8.11067 303.717 7.81167 303.717 7.439C303.717 7.11833 303.63 6.854 303.457 6.646C303.292 6.42933 303.071 6.24733 302.794 6.1C302.517 5.944 302.222 5.80533 301.91 5.684C301.615 5.57133 301.316 5.45 301.013 5.32C300.71 5.18133 300.428 5.01667 300.168 4.826C299.908 4.62667 299.7 4.384 299.544 4.098C299.388 3.812 299.31 3.46533 299.31 3.058C299.31 2.564 299.427 2.135 299.661 1.771C299.904 1.39833 300.233 1.108 300.649 0.899999C301.065 0.683333 301.542 0.566333 302.079 0.548999C302.686 0.548999 303.219 0.622666 303.678 0.77C304.146 0.917333 304.558 1.09933 304.913 1.316L304.432 2.278Z" fill="#DD6D48"/>
</svg>
