<svg width="1149" height="225" viewBox="0 0 1149 225" fill="none" xmlns="http://www.w3.org/2000/svg">
<path d="M1109.13 134.336C1107.37 140.494 1104.95 146.266 1101.83 151.649C1098.69 157.033 1094.91 161.948 1090.46 166.373C1086.02 170.819 1081.15 174.612 1075.78 177.793C1070.44 180.954 1064.67 183.401 1058.47 185.135C1052.27 186.848 1045.85 187.725 1039.18 187.725C1032.53 187.725 1026.13 186.848 1019.94 185.135C1013.79 183.401 1008.02 180.954 1002.61 177.793C997.251 174.612 992.336 170.819 987.89 166.373C983.466 161.948 979.652 157.033 976.486 151.649C973.326 146.266 970.88 140.494 969.147 134.336C967.414 128.157 966.559 121.753 966.559 115.105C966.559 108.437 967.414 102.013 969.147 95.8128C970.88 89.6134 973.326 83.8423 976.486 78.4994C979.652 73.1358 983.466 68.2414 987.89 63.8166C992.336 59.3706 997.251 55.5778 1002.61 52.4574C1008.02 49.3169 1013.79 46.8901 1019.94 45.1569C1026.13 43.4438 1032.53 42.5666 1039.18 42.5666C1045.85 42.5666 1052.27 43.4438 1058.47 45.1569C1064.67 46.8901 1070.44 49.3169 1075.78 52.4574C1081.15 55.5778 1086.02 59.3706 1090.46 63.8166C1094.91 68.2414 1098.69 73.1358 1101.83 78.4994C1104.95 83.8423 1107.37 89.6134 1109.13 95.8128C1110.84 102.013 1111.69 108.437 1111.69 115.105C1111.69 121.753 1110.84 128.157 1109.13 134.336ZM1144.63 86.0043C1142.02 76.6638 1138.37 67.9564 1133.64 59.8805C1128.93 51.8254 1123.22 44.4431 1116.53 37.7539C1109.84 31.0652 1102.46 25.3551 1094.38 20.6241C1086.32 15.9133 1077.62 12.2426 1068.28 9.63216C1058.94 7.04191 1049.23 5.73699 1039.2 5.73699C1029.16 5.73699 1019.52 7.04191 1010.22 9.63216C1000.92 12.2426 992.211 15.9133 984.098 20.6241C975.98 25.3551 968.575 31.0652 961.889 37.7539C955.199 44.4431 949.467 51.8254 944.694 59.8805C939.926 67.9564 936.232 76.6638 933.622 86.0043C931.012 95.3442 929.727 105.031 929.727 115.064C929.727 125.097 931.012 134.764 933.622 144.063C936.232 153.362 939.926 162.07 944.694 170.186C949.467 178.303 955.199 185.706 961.889 192.395C968.575 199.083 975.98 204.814 984.098 209.586C992.211 214.358 1000.92 218.049 1010.22 220.659C1019.52 223.25 1029.16 224.554 1039.2 224.554C1049.23 224.554 1058.94 223.25 1068.28 220.659C1077.62 218.049 1086.32 214.358 1094.38 209.586C1102.46 204.814 1109.84 199.083 1116.53 192.395C1123.22 185.706 1128.93 178.303 1133.64 170.186C1138.37 162.07 1142.02 153.362 1144.63 144.063C1147.24 134.764 1148.55 125.097 1148.55 115.064C1148.55 105.031 1147.24 95.3442 1144.63 86.0043Z" fill="#28735A"/>
<path d="M1026.36 133.051V95.0547C1026.36 94.0146 1027.42 93.3613 1028.27 93.874L1059.4 112.591C1060.26 113.107 1060.27 114.416 1059.42 114.944L1028.29 134.222C1027.44 134.75 1026.36 134.098 1026.36 133.051Z" fill="#D85D42"/>
<path d="M293.026 133.62V224.57H262.885V193.83H231.752V163.793H262.885V133.62C262.885 129.491 262.1 125.596 260.496 121.909C258.926 118.26 256.777 115.048 254.044 112.321C251.311 109.588 248.104 107.439 244.45 105.835C240.768 104.264 236.841 103.479 232.712 103.479C232.407 103.479 232.074 103.479 231.768 103.512H231.752V73.371H231.768C232.074 73.3384 232.407 73.3383 232.712 73.3383C241.073 73.3383 248.889 74.9092 256.193 78.0508C263.502 81.2257 269.916 85.5236 275.381 90.983C280.841 96.4485 285.139 102.83 288.281 110.172C291.455 117.475 293.026 125.291 293.026 133.62Z" fill="#87CE78"/>
<path d="M200.64 133.62V163.793H231.768V193.83H200.64V224.57H170.494V133.62C170.494 125.291 172.065 117.475 175.239 110.172C178.381 102.83 182.684 96.4485 188.144 90.983C193.604 85.5236 200.024 81.2257 207.327 78.0508C214.63 74.9092 222.452 73.3383 230.813 73.3383C231.113 73.3383 231.452 73.3384 231.751 73.371H231.768V103.512H231.751C231.452 103.479 231.113 103.479 230.813 103.479C226.679 103.479 222.757 104.264 219.07 105.835C215.416 107.439 212.209 109.588 209.476 112.321C206.749 115.048 204.6 118.26 203.029 121.909C201.42 125.596 200.64 129.491 200.64 133.62Z" fill="#28735A"/>
<path d="M383.321 93.6985L438.8 5.65116H399.554L349.365 81.7155V5.65116H311.536L310.975 224.542H349.056V148.099L359.973 130.882L402.981 224.542H444.652L383.321 93.6985Z" fill="#28735A"/>
<path d="M937.079 5.65146V42.9579H889.889V224.611H852.501V42.9579H805.131V5.65146H937.079Z" fill="#87CE78"/>
<path d="M571.924 117.353C571.924 115.131 571.499 113.032 570.649 111.058C569.799 109.084 568.644 107.37 567.189 105.915C565.734 104.46 564.024 103.309 562.051 102.457C560.073 101.607 557.976 101.181 555.753 101.181C553.508 101.181 551.405 101.607 549.438 102.457C547.482 103.309 545.765 104.46 544.3 105.915C542.834 107.37 541.673 109.084 540.824 111.058C539.974 113.032 539.543 115.131 539.543 117.353C539.543 119.575 539.974 121.661 540.824 123.612C541.673 125.562 542.834 127.271 544.3 128.737C545.765 130.203 547.482 131.361 549.438 132.213C551.405 133.064 553.508 133.489 555.753 133.489C557.976 133.489 560.073 133.064 562.051 132.213C564.024 131.361 565.734 130.203 567.189 128.737C568.644 127.271 569.799 125.562 570.649 123.612C571.499 121.661 571.924 119.575 571.924 117.353ZM582.031 117.353C582.031 119.765 581.72 122.087 581.094 124.322C580.467 126.555 579.585 128.649 578.451 130.599C577.318 132.55 575.945 134.329 574.338 135.936C572.73 137.544 570.96 138.922 569.014 140.067C567.08 141.215 564.988 142.101 562.743 142.728C560.493 143.354 558.166 143.667 555.753 143.667C553.339 143.667 551.023 143.354 548.784 142.728C546.55 142.101 544.458 141.215 542.507 140.067C540.556 138.922 538.775 137.544 537.173 135.936C535.56 134.329 534.187 132.55 533.037 130.599C531.893 128.649 531.005 126.555 530.379 124.322C529.752 122.087 529.441 119.765 529.441 117.353C529.441 114.941 529.752 112.613 530.379 110.367C531.005 108.12 531.893 106.028 533.037 104.089C534.187 102.15 535.56 100.377 537.173 98.7688C538.775 97.1615 540.556 95.7895 542.507 94.6551C544.458 93.5202 546.55 92.6403 548.784 92.0131C551.023 91.3871 553.339 91.0727 555.753 91.0727C558.166 91.0727 560.493 91.3871 562.743 92.0131C564.988 92.6403 567.08 93.5202 569.014 94.6551C570.96 95.7895 572.73 97.1615 574.338 98.7688C575.945 100.377 577.318 102.15 578.451 104.089C579.585 106.028 580.467 108.12 581.094 110.367C581.72 112.613 582.031 114.941 582.031 117.353Z" fill="#D85D42"/>
<path d="M787.515 224.542L787.264 5.65116H750.737L752.028 129.046L697.842 5.65116H665.723L665.995 224.542H703.65L701.531 108.158L758.087 224.542H787.515Z" fill="#28735A"/>
<path d="M109.217 95.0351C107.275 99.595 104.597 103.571 101.198 106.958C97.8115 110.351 93.8624 113.024 89.3406 114.982C84.8189 116.939 79.9865 117.921 74.8649 117.921H37.4484V43.072H74.8649C79.9865 43.072 84.8189 44.0484 89.3406 46.012C93.8624 47.9697 97.8115 50.6428 101.198 54.0296C104.597 57.417 107.275 61.3928 109.217 65.9582C111.18 70.5236 112.156 75.3668 112.156 80.4885C112.156 85.6265 111.18 90.4697 109.217 95.0351ZM129.239 131.737C133.592 127.134 137.257 122.094 140.267 116.618C143.251 111.131 145.558 105.349 147.167 99.273C148.776 93.1864 149.578 86.9303 149.578 80.4885C149.578 73.6325 148.695 67.0218 146.905 60.6785C145.127 54.3244 142.608 48.3735 139.346 42.8045C136.095 37.2469 132.179 32.1907 127.614 27.6144C123.048 23.0545 118.008 19.1495 112.478 15.882C106.964 12.6205 101.029 10.1005 94.6862 8.32807C88.3479 6.54421 81.7372 5.6501 74.8649 5.6501H0.015625V224.542H37.4484V155.212L79.2886 154.945L109.663 224.542H149.551L114.638 143.737C120.026 140.35 124.887 136.346 129.239 131.737Z" fill="#87CE78"/>
<path d="M491.531 197.576V148.759H464.555V224.509H464.598V224.553H540.344V197.576H491.531Z" fill="#EEBB13"/>
<path d="M621.038 197.576H572.225V224.553H647.971V224.509H648.02V148.759H621.038V197.576Z" fill="#EEBB13"/>
<path d="M621.04 32.6287V81.4458H648.022V5.69589H647.973V5.65175H572.227V32.6287H621.04Z" fill="#EEBB13"/>
<path d="M491.531 32.6287H540.344V5.65175H464.598V5.69533H464.555V81.4458H491.531V32.6287Z" fill="#EEBB13"/>
<path d="M593.055 78.4071C593.055 82.5786 589.677 85.96 585.503 85.96C581.329 85.96 577.951 82.5786 577.951 78.4071C577.951 74.2357 581.329 70.8538 585.503 70.8538C589.677 70.8538 593.055 74.2357 593.055 78.4071Z" fill="#D85D42"/>
<path d="M259.814 29.1145C259.814 45.1932 246.778 58.2295 230.699 58.2295C214.62 58.2295 201.584 45.1932 201.584 29.1145H259.814Z" fill="#EEBB13"/>
<path d="M201.584 29.115C201.584 13.0362 214.62 -3.79799e-05 230.699 -3.79799e-05C246.778 -3.79799e-05 259.814 13.0362 259.814 29.115H201.584Z" fill="#28735A"/>
</svg>
