<svg width="1149" height="290" viewBox="0 0 1149 290" fill="none" xmlns="http://www.w3.org/2000/svg">
<path d="M0 273.519H133.757V276.788H0V273.519Z" fill="#D95D42"/>
<path d="M1148.56 273.519V276.788H1014.81V273.519H1148.56Z" fill="#D95D42"/>
<path d="M162.6 263.959H175.803V266.821H165.585V273.899H174.541V276.761H165.585V286.209H162.6V263.959Z" fill="#D95D42"/>
<path d="M186.879 263.959H189.864V286.209H186.879V263.959Z" fill="#D95D42"/>
<path d="M221.686 286.918L204.482 269.469L205.344 269.684L205.405 286.21H202.42V263.283H202.574L219.562 280.793L218.885 280.64L218.823 263.96H221.808V286.918H221.686Z" fill="#D95D42"/>
<path d="M237.321 283.347H240.922C242.132 283.347 243.256 283.163 244.292 282.793C245.327 282.424 246.231 281.891 247 281.193C247.769 280.496 248.369 279.638 248.8 278.623C249.231 277.608 249.446 276.443 249.446 275.13C249.446 273.776 249.22 272.581 248.77 271.545C248.318 270.509 247.702 269.643 246.923 268.944C246.142 268.247 245.261 267.719 244.276 267.36C243.291 267.001 242.265 266.821 241.198 266.821H237.321V283.347ZM234.336 286.209V263.959H240.398C242.615 263.959 244.492 264.293 246.03 264.959C247.569 265.626 248.816 266.518 249.77 267.636C250.724 268.755 251.416 269.981 251.847 271.314C252.278 272.648 252.493 273.992 252.493 275.346C252.493 277.028 252.201 278.536 251.616 279.87C251.031 281.203 250.231 282.342 249.215 283.286C248.2 284.229 247.031 284.953 245.708 285.455C244.384 285.958 242.984 286.209 241.507 286.209H234.336Z" fill="#D95D42"/>
<path d="M263.664 263.959H266.649V286.209H263.664V263.959Z" fill="#D95D42"/>
<path d="M298.471 286.918L281.267 269.469L282.129 269.684L282.191 286.21H279.205V263.283H279.359L296.347 280.793L295.67 280.64L295.609 263.96H298.594V286.918H298.471Z" fill="#D95D42"/>
<path d="M328.537 284.3C328.229 284.567 327.798 284.829 327.244 285.085C326.69 285.342 326.079 285.573 325.413 285.778C324.746 285.983 324.063 286.146 323.366 286.27C322.669 286.393 322.001 286.455 321.366 286.455C319.581 286.455 317.97 286.178 316.534 285.624C315.098 285.07 313.872 284.3 312.857 283.315C311.841 282.331 311.067 281.172 310.533 279.838C309.999 278.504 309.732 277.068 309.732 275.529C309.732 273.642 310.035 271.97 310.641 270.513C311.246 269.056 312.071 267.82 313.118 266.805C314.164 265.789 315.38 265.02 316.765 264.497C318.15 263.973 319.601 263.712 321.12 263.712C322.433 263.712 323.644 263.861 324.751 264.158C325.859 264.456 326.833 264.851 327.675 265.343L326.69 268.082C326.259 267.856 325.741 267.635 325.136 267.42C324.531 267.205 323.91 267.031 323.274 266.897C322.638 266.764 322.053 266.697 321.52 266.697C320.186 266.697 318.991 266.897 317.935 267.297C316.878 267.697 315.965 268.272 315.196 269.02C314.426 269.77 313.836 270.672 313.426 271.729C313.015 272.785 312.81 273.971 312.81 275.283C312.81 276.474 313.015 277.576 313.426 278.591C313.836 279.608 314.426 280.479 315.196 281.207C315.965 281.936 316.873 282.495 317.919 282.884C318.966 283.274 320.135 283.469 321.427 283.469C322.166 283.469 322.904 283.398 323.644 283.254C324.382 283.11 325.008 282.884 325.521 282.577V278.207H321.12V275.314H328.537V284.3Z" fill="#D95D42"/>
<path d="M367.773 267.928C367.014 267.538 366.183 267.2 365.281 266.912C364.377 266.625 363.495 266.481 362.634 266.481C361.444 266.481 360.495 266.759 359.787 267.312C359.079 267.866 358.725 268.605 358.725 269.528C358.725 270.226 358.956 270.816 359.418 271.298C359.879 271.78 360.474 272.195 361.202 272.545C361.931 272.893 362.706 273.221 363.526 273.529C364.203 273.775 364.88 274.068 365.557 274.406C366.235 274.745 366.845 275.16 367.389 275.652C367.932 276.145 368.363 276.75 368.681 277.469C368.999 278.187 369.158 279.068 369.158 280.115C369.158 281.305 368.866 282.382 368.281 283.346C367.696 284.311 366.86 285.07 365.773 285.624C364.685 286.178 363.382 286.455 361.864 286.455C360.9 286.455 359.971 286.347 359.079 286.131C358.187 285.917 357.361 285.624 356.602 285.255C355.842 284.885 355.165 284.506 354.57 284.116L355.894 281.777C356.386 282.126 356.95 282.459 357.586 282.777C358.222 283.095 358.889 283.346 359.587 283.531C360.284 283.716 360.962 283.808 361.618 283.808C362.336 283.808 363.034 283.685 363.711 283.439C364.388 283.193 364.952 282.803 365.403 282.269C365.854 281.736 366.08 281.028 366.08 280.146C366.08 279.407 365.88 278.782 365.481 278.269C365.08 277.756 364.557 277.32 363.911 276.96C363.265 276.602 362.561 276.279 361.803 275.991C361.084 275.745 360.372 275.457 359.664 275.129C358.956 274.801 358.299 274.406 357.695 273.944C357.089 273.483 356.597 272.913 356.217 272.236C355.837 271.56 355.648 270.739 355.648 269.775C355.648 268.605 355.929 267.584 356.494 266.712C357.058 265.841 357.833 265.153 358.817 264.65C359.803 264.148 360.93 263.876 362.203 263.835C363.639 263.835 364.906 264.009 366.004 264.358C367.101 264.707 368.07 265.127 368.912 265.62L367.773 267.928Z" fill="#D95D42"/>
<path d="M378.516 263.959H393.318V266.821H387.348V286.209H384.362V266.821H378.516V263.959Z" fill="#D95D42"/>
<path d="M404.95 275.098C404.95 276.289 405.162 277.391 405.582 278.407C406.002 279.423 406.601 280.32 407.369 281.1C408.137 281.88 409.02 282.49 410.017 282.931C411.009 283.373 412.093 283.593 413.264 283.593C414.43 283.593 415.515 283.373 416.506 282.931C417.503 282.49 418.375 281.885 419.122 281.115C419.874 280.346 420.462 279.449 420.892 278.423C421.323 277.397 421.541 276.299 421.541 275.129C421.541 273.939 421.323 272.832 420.892 271.805C420.462 270.78 419.874 269.872 419.122 269.082C418.375 268.293 417.493 267.677 416.479 267.236C415.46 266.795 414.381 266.574 413.232 266.574C412.06 266.574 410.971 266.8 409.952 267.251C408.938 267.702 408.056 268.318 407.309 269.097C406.557 269.877 405.98 270.785 405.566 271.821C405.157 272.857 404.95 273.95 404.95 275.098ZM401.877 275.098C401.877 273.56 402.166 272.103 402.754 270.729C403.337 269.354 404.154 268.139 405.201 267.081C406.247 266.025 407.451 265.199 408.813 264.604C410.181 264.009 411.652 263.712 413.232 263.712C414.768 263.712 416.228 264.009 417.602 264.604C418.975 265.199 420.19 266.025 421.247 267.081C422.304 268.139 423.132 269.354 423.726 270.729C424.32 272.103 424.619 273.57 424.619 275.129C424.619 276.689 424.32 278.156 423.726 279.53C423.132 280.905 422.309 282.11 421.263 283.146C420.217 284.183 419.007 284.992 417.634 285.578C416.256 286.162 414.79 286.455 413.232 286.455C411.652 286.455 410.181 286.168 408.813 285.593C407.451 285.019 406.247 284.213 405.201 283.177C404.154 282.141 403.337 280.941 402.754 279.577C402.166 278.212 401.877 276.72 401.877 275.098Z" fill="#D95D42"/>
<path d="M445.665 276.854L451.484 286.209H448.035L442.097 276.946L445.665 276.854ZM442.004 275.13C442.887 275.13 443.617 274.997 444.205 274.73C444.788 274.463 445.246 274.12 445.573 273.7C445.9 273.279 446.139 272.833 446.281 272.361C446.423 271.889 446.499 271.427 446.499 270.976C446.499 270.525 446.423 270.063 446.265 269.591C446.112 269.119 445.867 268.673 445.529 268.252C445.191 267.831 444.75 267.488 444.205 267.221C443.66 266.955 443.001 266.821 442.222 266.821H438.773V275.13H442.004ZM441.693 263.959C442.821 263.959 443.867 264.108 444.821 264.405C445.774 264.703 446.603 265.144 447.311 265.728C448.019 266.313 448.575 267.036 448.973 267.898C449.376 268.759 449.572 269.744 449.572 270.852C449.572 271.735 449.447 272.596 449.191 273.437C448.935 274.279 448.515 275.043 447.927 275.73C447.344 276.418 446.575 276.972 445.622 277.392C444.668 277.813 443.48 278.023 442.064 278.023H438.773V286.209H435.787V263.959H441.693Z" fill="#D95D42"/>
<path d="M462.225 263.959H465.21V286.209H462.225V263.959Z" fill="#D95D42"/>
<path d="M477.764 263.959H492.23V266.821H480.749V273.592H490.998V276.484H480.749V283.347H492.66V286.209H477.764V263.959Z" fill="#D95D42"/>
<path d="M515.495 267.928C514.738 267.538 513.904 267.2 513.005 266.912C512.1 266.625 511.218 266.481 510.357 266.481C509.164 266.481 508.216 266.759 507.507 267.312C506.799 267.866 506.445 268.605 506.445 269.528C506.445 270.226 506.679 270.816 507.142 271.298C507.6 271.78 508.194 272.195 508.924 272.545C509.654 272.893 510.428 273.221 511.25 273.529C511.926 273.775 512.602 274.068 513.277 274.406C513.958 274.745 514.569 275.16 515.108 275.652C515.653 276.145 516.083 276.75 516.405 277.469C516.721 278.187 516.879 279.068 516.879 280.115C516.879 281.305 516.59 282.382 516.002 283.346C515.419 284.311 514.585 285.07 513.495 285.624C512.406 286.178 511.103 286.455 509.589 286.455C508.624 286.455 507.693 286.347 506.799 286.131C505.911 285.917 505.083 285.624 504.325 285.255C503.562 284.885 502.887 284.506 502.293 284.116L503.617 281.777C504.107 282.126 504.674 282.459 505.306 282.777C505.944 283.095 506.614 283.346 507.311 283.531C508.009 283.716 508.684 283.808 509.338 283.808C510.057 283.808 510.755 283.685 511.43 283.439C512.111 283.193 512.672 282.803 513.125 282.269C513.577 281.736 513.8 281.028 513.8 280.146C513.8 279.407 513.604 278.782 513.201 278.269C512.803 277.756 512.28 277.32 511.632 276.96C510.989 276.602 510.286 276.279 509.523 275.991C508.804 275.745 508.096 275.457 507.387 275.129C506.679 274.801 506.02 274.406 505.415 273.944C504.81 273.483 504.32 272.913 503.938 272.236C503.557 271.56 503.372 270.739 503.372 269.775C503.372 268.605 503.65 267.584 504.216 266.712C504.778 265.841 505.557 265.153 506.537 264.65C507.524 264.148 508.651 263.876 509.926 263.835C511.359 263.835 512.629 264.009 513.724 264.358C514.825 264.707 515.795 265.127 516.634 265.62L515.495 267.928Z" fill="#D95D42"/>
<path d="M529.961 283.501C529.509 284.588 529.062 285.66 528.621 286.716C528.179 287.773 527.733 288.855 527.28 289.963H524.91C525.341 288.855 525.755 287.773 526.142 286.716C526.534 285.66 526.921 284.588 527.313 283.501H529.961Z" fill="#D95D42"/>
<path d="M567.846 267.928C567.084 267.538 566.255 267.2 565.351 266.912C564.447 266.625 563.569 266.481 562.703 266.481C561.515 266.481 560.567 266.759 559.859 267.312C559.151 267.866 558.796 268.605 558.796 269.528C558.796 270.226 559.025 270.816 559.488 271.298C559.951 271.78 560.545 272.195 561.275 272.545C562 272.893 562.779 273.221 563.597 273.529C564.278 273.775 564.953 274.068 565.629 274.406C566.305 274.745 566.915 275.16 567.46 275.652C568.004 276.145 568.435 276.75 568.751 277.469C569.072 278.187 569.23 279.068 569.23 280.115C569.23 281.305 568.936 282.382 568.353 283.346C567.77 284.311 566.931 285.07 565.847 285.624C564.757 286.178 563.455 286.455 561.935 286.455C560.97 286.455 560.044 286.347 559.151 286.131C558.257 285.917 557.434 285.624 556.671 285.255C555.914 284.885 555.238 284.506 554.645 284.116L555.963 281.777C556.459 282.126 557.02 282.459 557.658 282.777C558.295 283.095 558.96 283.346 559.657 283.531C560.355 283.716 561.036 283.808 561.69 283.808C562.409 283.808 563.106 283.685 563.782 283.439C564.457 283.193 565.024 282.803 565.476 282.269C565.929 281.736 566.152 281.028 566.152 280.146C566.152 279.407 565.95 278.782 565.553 278.269C565.149 277.756 564.626 277.32 563.983 276.96C563.335 276.602 562.632 276.279 561.875 275.991C561.156 275.745 560.442 275.457 559.734 275.129C559.025 274.801 558.371 274.406 557.767 273.944C557.162 273.483 556.666 272.913 556.29 272.236C555.909 271.56 555.718 270.739 555.718 269.775C555.718 268.605 556.001 267.584 556.568 266.712C557.129 265.841 557.903 265.153 558.889 264.65C559.875 264.148 561.003 263.876 562.273 263.835C563.711 263.835 564.975 264.009 566.076 264.358C567.171 264.707 568.141 265.127 568.985 265.62L567.846 267.928Z" fill="#D95D42"/>
<path d="M598.003 263.959V286.209H595.017V276.454H583.384V286.209H580.398V263.959H583.384V273.592H595.017V263.959H598.003Z" fill="#D95D42"/>
<path d="M614.038 277.777H622.314L623.3 280.362H613.177L614.038 277.777ZM608.344 286.209L618.037 263.036H618.222L627.948 286.209H624.531L617.269 267.713L619.388 266.328L611.297 286.209H608.344Z" fill="#D95D42"/>
<path d="M648.169 276.854L653.982 286.209H650.534L644.595 276.946L648.169 276.854ZM644.502 275.13C645.385 275.13 646.12 274.997 646.703 274.73C647.292 274.463 647.744 274.12 648.076 273.7C648.403 273.279 648.637 272.833 648.779 272.361C648.926 271.889 648.997 271.427 648.997 270.976C648.997 270.525 648.921 270.063 648.768 269.591C648.61 269.119 648.365 268.673 648.027 268.252C647.689 267.831 647.248 267.488 646.703 267.221C646.158 266.955 645.499 266.821 644.72 266.821H641.271V275.13H644.502ZM644.197 263.959C645.325 263.959 646.365 264.108 647.319 264.405C648.272 264.703 649.106 265.144 649.814 265.728C650.523 266.313 651.073 267.036 651.476 267.898C651.874 268.759 652.075 269.744 652.075 270.852C652.075 271.735 651.945 272.596 651.689 273.437C651.433 274.279 651.013 275.043 650.43 275.73C649.842 276.418 649.073 276.972 648.12 277.392C647.166 277.813 645.984 278.023 644.567 278.023H641.271V286.209H638.285V263.959H644.197Z" fill="#D95D42"/>
<path d="M664.721 263.959H667.707V286.209H664.721V263.959Z" fill="#D95D42"/>
<path d="M699.532 286.918L682.325 269.469L683.186 269.684L683.251 286.21H680.266V263.283H680.418L697.407 280.793L696.731 280.64L696.666 263.96H699.652V286.918H699.532Z" fill="#D95D42"/>
<path d="M729.598 284.301C729.287 284.568 728.857 284.829 728.307 285.085C727.751 285.342 727.141 285.573 726.47 285.778C725.806 285.983 725.125 286.147 724.427 286.27C723.73 286.394 723.06 286.455 722.428 286.455C720.64 286.455 719.028 286.178 717.595 285.624C716.156 285.07 714.93 284.301 713.917 283.316C712.904 282.331 712.124 281.172 711.596 279.838C711.062 278.505 710.795 277.068 710.795 275.53C710.795 273.642 711.095 271.971 711.699 270.513C712.304 269.057 713.132 267.82 714.178 266.805C715.225 265.789 716.44 265.02 717.824 264.497C719.208 263.973 720.662 263.712 722.182 263.712C723.496 263.712 724.705 263.861 725.811 264.158C726.917 264.456 727.893 264.851 728.737 265.343L727.751 268.082C727.32 267.856 726.803 267.636 726.198 267.42C725.593 267.205 724.972 267.031 724.335 266.897C723.697 266.764 723.114 266.697 722.58 266.697C721.245 266.697 720.052 266.897 718.995 267.297C717.938 267.697 717.023 268.272 716.254 269.021C715.486 269.77 714.898 270.672 714.484 271.729C714.075 272.786 713.868 273.971 713.868 275.283C713.868 276.474 714.075 277.576 714.484 278.592C714.898 279.608 715.486 280.48 716.254 281.208C717.023 281.936 717.933 282.495 718.979 282.885C720.025 283.275 721.196 283.469 722.488 283.469C723.229 283.469 723.964 283.398 724.705 283.254C725.441 283.111 726.067 282.885 726.579 282.577V278.207H722.182V275.314H729.598V284.301Z" fill="#D95D42"/>
<path d="M768.831 267.928C768.073 267.538 767.24 267.2 766.341 266.912C765.436 266.625 764.554 266.481 763.693 266.481C762.505 266.481 761.557 266.759 760.849 267.312C760.14 267.866 759.786 268.605 759.786 269.528C759.786 270.226 760.015 270.816 760.478 271.298C760.941 271.78 761.535 272.195 762.26 272.545C762.99 272.893 763.764 273.221 764.586 273.529C765.262 273.775 765.938 274.068 766.619 274.406C767.294 274.745 767.905 275.16 768.449 275.652C768.989 276.145 769.425 276.75 769.741 277.469C770.057 278.187 770.22 279.068 770.22 280.115C770.22 281.305 769.926 282.382 769.343 283.346C768.755 284.311 767.921 285.07 766.831 285.624C765.747 286.178 764.445 286.455 762.925 286.455C761.96 286.455 761.034 286.347 760.14 286.131C759.247 285.917 758.419 285.624 757.661 285.255C756.904 284.885 756.223 284.506 755.629 284.116L756.953 281.777C757.449 282.126 758.01 282.459 758.647 282.777C759.279 283.095 759.95 283.346 760.647 283.531C761.344 283.716 762.02 283.808 762.679 283.808C763.393 283.808 764.096 283.685 764.772 283.439C765.447 283.193 766.014 282.803 766.461 282.269C766.913 281.736 767.142 281.028 767.142 280.146C767.142 279.407 766.94 278.782 766.542 278.269C766.139 277.756 765.616 277.32 764.968 276.96C764.325 276.602 763.622 276.279 762.865 275.991C762.145 275.745 761.432 275.457 760.723 275.129C760.015 274.801 759.361 274.406 758.756 273.944C758.146 273.483 757.656 272.913 757.274 272.236C756.898 271.56 756.708 270.739 756.708 269.775C756.708 268.605 756.991 267.584 757.552 266.712C758.119 265.841 758.893 265.153 759.879 264.65C760.86 264.148 761.993 263.876 763.262 263.835C764.701 263.835 765.965 264.009 767.065 264.358C768.161 264.707 769.131 265.127 769.97 265.62L768.831 267.928Z" fill="#D95D42"/>
<path d="M783.081 275.098C783.081 276.289 783.293 277.391 783.713 278.407C784.132 279.423 784.732 280.32 785.5 281.1C786.268 281.88 787.151 282.49 788.148 282.931C789.14 283.373 790.224 283.593 791.395 283.593C792.561 283.593 793.646 283.373 794.637 282.931C795.634 282.49 796.506 281.885 797.253 281.115C798.004 280.346 798.593 279.449 799.023 278.423C799.454 277.397 799.672 276.299 799.672 275.129C799.672 273.939 799.454 272.832 799.023 271.805C798.593 270.78 798.004 269.872 797.253 269.082C796.506 268.293 795.623 267.677 794.61 267.236C793.591 266.795 792.512 266.574 791.363 266.574C790.191 266.574 789.101 266.8 788.083 267.251C787.069 267.702 786.186 268.318 785.44 269.097C784.688 269.877 784.111 270.785 783.696 271.821C783.288 272.857 783.081 273.95 783.081 275.098ZM780.008 275.098C780.008 273.56 780.297 272.103 780.885 270.729C781.468 269.354 782.285 268.139 783.331 267.081C784.378 266.025 785.582 265.199 786.944 264.604C788.311 264.009 789.783 263.712 791.363 263.712C792.899 263.712 794.359 264.009 795.732 264.604C797.105 265.199 798.32 266.025 799.377 267.081C800.435 268.139 801.263 269.354 801.857 270.729C802.45 272.103 802.75 273.57 802.75 275.129C802.75 276.689 802.45 278.156 801.857 279.53C801.263 280.905 800.44 282.11 799.394 283.146C798.348 284.183 797.138 284.992 795.765 285.578C794.387 286.162 792.921 286.455 791.363 286.455C789.783 286.455 788.311 286.168 786.944 285.593C785.582 285.019 784.378 284.213 783.331 283.177C782.285 282.141 781.468 280.941 780.885 279.577C780.297 278.212 780.008 276.72 780.008 275.098Z" fill="#D95D42"/>
<path d="M813.92 263.959H816.906V283.347H828.201V286.209H813.92V263.959Z" fill="#D95D42"/>
<path d="M841.89 278.33C841.89 279.336 842.135 280.233 842.615 281.023C843.094 281.813 843.743 282.434 844.554 282.884C845.366 283.336 846.26 283.562 847.246 283.562C848.292 283.562 849.224 283.336 850.047 282.884C850.869 282.434 851.507 281.813 851.97 281.023C852.433 280.233 852.662 279.336 852.662 278.33V263.958H855.615V278.423C855.615 280.043 855.25 281.459 854.509 282.67C853.773 283.88 852.765 284.813 851.496 285.47C850.221 286.126 848.804 286.455 847.246 286.455C845.71 286.455 844.304 286.126 843.029 285.47C841.759 284.813 840.751 283.88 840.016 282.67C839.275 281.459 838.904 280.043 838.904 278.423V263.958H841.89V278.33Z" fill="#D95D42"/>
<path d="M866.205 263.959H881.009V266.821H875.037V286.209H872.057V266.821H866.205V263.959Z" fill="#D95D42"/>
<path d="M891.906 263.959H894.892V286.209H891.906V263.959Z" fill="#D95D42"/>
<path d="M909.139 275.098C909.139 276.289 909.346 277.391 909.766 278.407C910.191 279.423 910.785 280.32 911.553 281.1C912.321 281.88 913.204 282.49 914.201 282.931C915.192 283.373 916.277 283.593 917.448 283.593C918.614 283.593 919.698 283.373 920.695 282.931C921.687 282.49 922.559 281.885 923.311 281.115C924.057 280.346 924.646 279.449 925.076 278.423C925.512 277.397 925.724 276.299 925.724 275.129C925.724 273.939 925.512 272.832 925.076 271.805C924.646 270.78 924.057 269.872 923.311 269.082C922.559 268.293 921.676 267.677 920.663 267.236C919.644 266.795 918.565 266.574 917.415 266.574C916.244 266.574 915.154 266.8 914.135 267.251C913.122 267.702 912.239 268.318 911.493 269.097C910.741 269.877 910.163 270.785 909.755 271.821C909.341 272.857 909.139 273.95 909.139 275.098ZM906.061 275.098C906.061 273.56 906.349 272.103 906.938 270.729C907.521 269.354 908.338 268.139 909.384 267.081C910.43 266.025 911.634 265.199 912.997 264.604C914.364 264.009 915.835 263.712 917.415 263.712C918.952 263.712 920.412 264.009 921.785 264.604C923.158 265.199 924.373 266.025 925.43 267.081C926.487 268.139 927.315 269.354 927.909 270.729C928.503 272.103 928.803 273.57 928.803 275.129C928.803 276.689 928.503 278.156 927.909 279.53C927.315 280.905 926.493 282.11 925.447 283.146C924.4 284.183 923.191 284.992 921.818 285.578C920.439 286.162 918.974 286.455 917.415 286.455C915.835 286.455 914.364 286.168 912.997 285.593C911.634 285.019 910.43 284.213 909.384 283.177C908.338 282.141 907.521 280.941 906.938 279.577C906.349 278.212 906.061 276.72 906.061 275.098Z" fill="#D95D42"/>
<path d="M959.237 286.918L942.036 269.469L942.897 269.684L942.956 286.21H939.971V263.283H940.123L957.112 280.793L956.436 280.64L956.376 263.96H959.362V286.918H959.237Z" fill="#D95D42"/>
<path d="M983.397 267.928C982.64 267.538 981.806 267.2 980.902 266.912C980.003 266.625 979.12 266.481 978.259 266.481C977.066 266.481 976.118 266.759 975.41 267.312C974.701 267.866 974.347 268.605 974.347 269.528C974.347 270.226 974.581 270.816 975.039 271.298C975.502 271.78 976.096 272.195 976.826 272.545C977.556 272.893 978.33 273.221 979.147 273.529C979.828 273.775 980.504 274.068 981.18 274.406C981.861 274.745 982.471 275.16 983.01 275.652C983.555 276.145 983.986 276.75 984.307 277.469C984.623 278.187 984.781 279.068 984.781 280.115C984.781 281.305 984.487 282.382 983.904 283.346C983.321 284.311 982.482 285.07 981.398 285.624C980.308 286.178 979.006 286.455 977.486 286.455C976.521 286.455 975.595 286.347 974.701 286.131C973.808 285.917 972.985 285.624 972.228 285.255C971.465 284.885 970.789 284.506 970.195 284.116L971.519 281.777C972.01 282.126 972.576 282.459 973.208 282.777C973.846 283.095 974.516 283.346 975.213 283.531C975.905 283.716 976.587 283.808 977.24 283.808C977.96 283.808 978.657 283.685 979.333 283.439C980.014 283.193 980.575 282.803 981.027 282.269C981.479 281.736 981.703 281.028 981.703 280.146C981.703 279.407 981.507 278.782 981.103 278.269C980.706 277.756 980.183 277.32 979.534 276.96C978.891 276.602 978.183 276.279 977.426 275.991C976.706 275.745 975.998 275.457 975.29 275.129C974.581 274.801 973.922 274.406 973.317 273.944C972.713 273.483 972.222 272.913 971.841 272.236C971.459 271.56 971.269 270.739 971.269 269.775C971.269 268.605 971.552 267.584 972.119 266.712C972.68 265.841 973.459 265.153 974.44 264.65C975.426 264.148 976.554 263.876 977.829 263.835C979.262 263.835 980.531 264.009 981.626 264.358C982.727 264.707 983.691 265.127 984.536 265.62L983.397 267.928Z" fill="#D95D42"/>
<path d="M1109.13 134.336C1107.37 140.494 1104.95 146.266 1101.83 151.649C1098.69 157.033 1094.91 161.948 1090.47 166.373C1086.02 170.819 1081.15 174.612 1075.78 177.793C1070.44 180.954 1064.67 183.401 1058.47 185.135C1052.27 186.848 1045.85 187.725 1039.18 187.725C1032.53 187.725 1026.13 186.848 1019.95 185.135C1013.79 183.401 1008.02 180.954 1002.61 177.793C997.253 174.612 992.338 170.819 987.892 166.373C983.468 161.948 979.654 157.033 976.488 151.649C973.328 146.266 970.882 140.494 969.149 134.336C967.416 128.157 966.561 121.753 966.561 115.105C966.561 108.437 967.416 102.013 969.149 95.8128C970.882 89.6134 973.328 83.8423 976.488 78.4994C979.654 73.1358 983.468 68.2414 987.892 63.8166C992.338 59.3706 997.253 55.5778 1002.61 52.4574C1008.02 49.3169 1013.79 46.8901 1019.95 45.1569C1026.13 43.4438 1032.53 42.5666 1039.18 42.5666C1045.85 42.5666 1052.27 43.4438 1058.47 45.1569C1064.67 46.8901 1070.44 49.3169 1075.78 52.4574C1081.15 55.5778 1086.02 59.3706 1090.47 63.8166C1094.91 68.2414 1098.69 73.1358 1101.83 78.4994C1104.95 83.8423 1107.37 89.6134 1109.13 95.8128C1110.84 102.013 1111.69 108.437 1111.69 115.105C1111.69 121.753 1110.84 128.157 1109.13 134.336ZM1144.63 86.0043C1142.02 76.6638 1138.37 67.9564 1133.64 59.8805C1128.93 51.8254 1123.22 44.4431 1116.53 37.7539C1109.84 31.0652 1102.46 25.3551 1094.38 20.6241C1086.33 15.9133 1077.62 12.2426 1068.28 9.63216C1058.94 7.04191 1049.23 5.73699 1039.2 5.73699C1029.16 5.73699 1019.52 7.04191 1010.22 9.63216C1000.92 12.2426 992.213 15.9133 984.1 20.6241C975.981 25.3551 968.577 31.0652 961.891 37.7539C955.201 44.4431 949.469 51.8254 944.696 59.8805C939.928 67.9564 936.234 76.6638 933.624 86.0043C931.014 95.3442 929.729 105.031 929.729 115.064C929.729 125.097 931.014 134.764 933.624 144.063C936.234 153.362 939.928 162.07 944.696 170.186C949.469 178.303 955.201 185.706 961.891 192.395C968.577 199.083 975.981 204.814 984.1 209.586C992.213 214.358 1000.92 218.049 1010.22 220.659C1019.52 223.25 1029.16 224.554 1039.2 224.554C1049.23 224.554 1058.94 223.25 1068.28 220.659C1077.62 218.049 1086.33 214.358 1094.38 209.586C1102.46 204.814 1109.84 199.083 1116.53 192.395C1123.22 185.706 1128.93 178.303 1133.64 170.186C1138.37 162.07 1142.02 153.362 1144.63 144.063C1147.24 134.764 1148.55 125.097 1148.55 115.064C1148.55 105.031 1147.24 95.3442 1144.63 86.0043Z" fill="#28735A"/>
<path d="M1026.36 133.051V95.0547C1026.36 94.0146 1027.42 93.3613 1028.27 93.874L1059.4 112.591C1060.26 113.107 1060.27 114.416 1059.42 114.944L1028.29 134.222C1027.44 134.75 1026.36 134.098 1026.36 133.051Z" fill="#D85D42"/>
<path d="M293.028 133.62V224.57H262.887V193.83H231.754V163.793H262.887V133.62C262.887 129.491 262.102 125.596 260.498 121.909C258.928 118.26 256.779 115.048 254.046 112.321C251.313 109.588 248.106 107.439 244.452 105.835C240.77 104.264 236.843 103.479 232.714 103.479C232.409 103.479 232.076 103.479 231.77 103.512H231.754V73.371H231.77C232.076 73.3384 232.409 73.3383 232.714 73.3383C241.075 73.3383 248.891 74.9092 256.195 78.0508C263.504 81.2257 269.918 85.5236 275.383 90.983C280.843 96.4485 285.141 102.83 288.283 110.172C291.457 117.475 293.028 125.291 293.028 133.62Z" fill="#87CE78"/>
<path d="M200.642 133.62V163.793H231.77V193.83H200.642V224.57H170.496V133.62C170.496 125.291 172.067 117.475 175.241 110.172C178.383 102.83 182.686 96.4485 188.146 90.983C193.606 85.5236 200.026 81.2257 207.329 78.0508C214.632 74.9092 222.454 73.3383 230.815 73.3383C231.115 73.3383 231.454 73.3384 231.753 73.371H231.77V103.512H231.753C231.454 103.479 231.115 103.479 230.815 103.479C226.681 103.479 222.759 104.264 219.072 105.835C215.418 107.439 212.211 109.588 209.478 112.321C206.751 115.048 204.602 118.26 203.031 121.909C201.422 125.596 200.642 129.491 200.642 133.62Z" fill="#28735A"/>
<path d="M383.321 93.6985L438.8 5.65116H399.554L349.365 81.7155V5.65116H311.536L310.975 224.542H349.056V148.099L359.973 130.882L402.981 224.542H444.652L383.321 93.6985Z" fill="#28735A"/>
<path d="M937.079 5.65146V42.9579H889.889V224.611H852.501V42.9579H805.131V5.65146H937.079Z" fill="#87CE78"/>
<path d="M571.926 117.353C571.926 115.131 571.501 113.032 570.651 111.058C569.801 109.084 568.646 107.37 567.191 105.915C565.736 104.46 564.025 103.309 562.053 102.457C560.075 101.607 557.978 101.181 555.755 101.181C553.51 101.181 551.407 101.607 549.44 102.457C547.484 103.309 545.767 104.46 544.302 105.915C542.836 107.37 541.675 109.084 540.825 111.058C539.975 113.032 539.545 115.131 539.545 117.353C539.545 119.575 539.975 121.661 540.825 123.612C541.675 125.562 542.836 127.271 544.302 128.737C545.767 130.203 547.484 131.361 549.44 132.213C551.407 133.064 553.51 133.489 555.755 133.489C557.978 133.489 560.075 133.064 562.053 132.213C564.025 131.361 565.736 130.203 567.191 128.737C568.646 127.271 569.801 125.562 570.651 123.612C571.501 121.661 571.926 119.575 571.926 117.353ZM582.033 117.353C582.033 119.765 581.722 122.087 581.096 124.322C580.469 126.555 579.587 128.649 578.453 130.599C577.32 132.55 575.947 134.329 574.34 135.936C572.732 137.544 570.961 138.922 569.016 140.067C567.082 141.215 564.99 142.101 562.745 142.728C560.495 143.354 558.168 143.667 555.755 143.667C553.341 143.667 551.025 143.354 548.786 142.728C546.552 142.101 544.46 141.215 542.509 140.067C540.558 138.922 538.777 137.544 537.175 135.936C535.562 134.329 534.189 132.55 533.039 130.599C531.895 128.649 531.007 126.555 530.381 124.322C529.754 122.087 529.443 119.765 529.443 117.353C529.443 114.941 529.754 112.613 530.381 110.367C531.007 108.12 531.895 106.028 533.039 104.089C534.189 102.15 535.562 100.377 537.175 98.7688C538.777 97.1615 540.558 95.7895 542.509 94.6551C544.46 93.5202 546.552 92.6403 548.786 92.0131C551.025 91.3871 553.341 91.0727 555.755 91.0727C558.168 91.0727 560.495 91.3871 562.745 92.0131C564.99 92.6403 567.082 93.5202 569.016 94.6551C570.961 95.7895 572.732 97.1615 574.34 98.7688C575.947 100.377 577.32 102.15 578.453 104.089C579.587 106.028 580.469 108.12 581.096 110.367C581.722 112.613 582.033 114.941 582.033 117.353Z" fill="#D85D42"/>
<path d="M787.515 224.542L787.264 5.65116H750.737L752.028 129.046L697.842 5.65116H665.723L665.995 224.542H703.65L701.531 108.158L758.087 224.542H787.515Z" fill="#28735A"/>
<path d="M109.217 95.0351C107.275 99.595 104.597 103.571 101.198 106.958C97.8115 110.351 93.8624 113.024 89.3406 114.982C84.8189 116.939 79.9865 117.921 74.8649 117.921H37.4484V43.072H74.8649C79.9865 43.072 84.8189 44.0484 89.3406 46.012C93.8624 47.9697 97.8115 50.6428 101.198 54.0296C104.597 57.417 107.275 61.3928 109.217 65.9582C111.18 70.5236 112.156 75.3668 112.156 80.4885C112.156 85.6265 111.18 90.4697 109.217 95.0351ZM129.239 131.737C133.592 127.134 137.257 122.094 140.267 116.618C143.251 111.131 145.558 105.349 147.167 99.273C148.776 93.1864 149.578 86.9303 149.578 80.4885C149.578 73.6325 148.695 67.0218 146.905 60.6785C145.127 54.3244 142.608 48.3735 139.346 42.8045C136.095 37.2469 132.179 32.1907 127.614 27.6144C123.048 23.0545 118.008 19.1495 112.478 15.882C106.964 12.6205 101.029 10.1005 94.6862 8.32807C88.3479 6.54421 81.7372 5.6501 74.8649 5.6501H0.015625V224.542H37.4484V155.212L79.2886 154.945L109.663 224.542H149.551L114.638 143.737C120.026 140.35 124.887 136.346 129.239 131.737Z" fill="#87CE78"/>
<path d="M491.531 197.576V148.759H464.555V224.509H464.598V224.553H540.344V197.576H491.531Z" fill="#EEBB13"/>
<path d="M621.038 197.576H572.225V224.553H647.971V224.509H648.02V148.759H621.038V197.576Z" fill="#EEBB13"/>
<path d="M621.04 32.6287V81.4458H648.022V5.69589H647.973V5.65175H572.227V32.6287H621.04Z" fill="#EEBB13"/>
<path d="M491.531 32.6287H540.344V5.65175H464.598V5.69533H464.555V81.4458H491.531V32.6287Z" fill="#EEBB13"/>
<path d="M593.057 78.4071C593.057 82.5786 589.678 85.96 585.505 85.96C581.331 85.96 577.953 82.5786 577.953 78.4071C577.953 74.2357 581.331 70.8538 585.505 70.8538C589.678 70.8538 593.057 74.2357 593.057 78.4071Z" fill="#D85D42"/>
<path d="M259.814 29.1145C259.814 45.1932 246.778 58.2295 230.699 58.2295C214.62 58.2295 201.584 45.1932 201.584 29.1145H259.814Z" fill="#EEBB13"/>
<path d="M201.584 29.115C201.584 13.0362 214.62 -3.79799e-05 230.699 -3.79799e-05C246.778 -3.79799e-05 259.814 13.0362 259.814 29.115H201.584Z" fill="#28735A"/>
</svg>
