<svg width="35" height="35" viewBox="0 0 35 35" fill="none" xmlns="http://www.w3.org/2000/svg">
<g clip-path="url(#clip0_84_2643)">
<path d="M32.5184 0H1.89971C0.851244 0 0 0.849544 0 1.89971V32.5184C0 33.5686 0.851244 34.4193 1.89971 34.4193H18.3839V21.0901H13.8987V15.8948H18.3839V12.0636C18.3839 7.61869 21.098 5.19701 25.0641 5.19701C26.9655 5.19701 28.596 5.33926 29.0715 5.40103V10.0472L26.3206 10.0483C24.1641 10.0483 23.7481 11.0735 23.7481 12.5771V15.8931H28.893L28.2203 21.0878H23.7476V34.4176H32.5179C33.5675 34.4176 34.4193 33.5658 34.4193 32.5184V1.89858C34.4187 0.849544 33.568 0 32.5184 0Z" fill="#13795F"/>
</g>
<defs>
<clipPath id="clip0_84_2643">
<rect width="34.4193" height="34.4193" rx="17.2096" fill="white"/>
</clipPath>
</defs>
</svg>
