<svg width="36" height="35" viewBox="0 0 36 35" fill="none" xmlns="http://www.w3.org/2000/svg">
<rect x="0.611328" width="34.4193" height="34.4193" rx="17.2096" fill="#13795F"/>
<path d="M28.0952 12.9566C28.0468 11.8591 27.8693 11.1045 27.6151 10.4507C27.3528 9.75673 26.9493 9.13539 26.4206 8.61887C25.9041 8.09431 25.2787 7.68671 24.5927 7.42852C23.9351 7.17428 23.1845 6.9968 22.087 6.94841C20.9813 6.89593 20.6303 6.88379 17.8259 6.88379C15.0215 6.88379 14.6705 6.89593 13.5689 6.94432C12.4714 6.9927 11.7168 7.17034 11.0632 7.42443C10.369 7.68671 9.7477 8.09021 9.23118 8.61887C8.70662 9.13539 8.29917 9.76083 8.04083 10.4468C7.78659 11.1045 7.60911 11.855 7.56072 12.9525C7.50823 14.0582 7.49609 14.4092 7.49609 17.2136C7.49609 20.018 7.50823 20.369 7.55662 21.4706C7.60501 22.5681 7.78265 23.3226 8.03689 23.9764C8.29917 24.6705 8.70662 25.2918 9.23118 25.8083C9.7477 26.3329 10.3731 26.7405 11.0591 26.9987C11.7168 27.2529 12.4673 27.4304 13.5649 27.4788C14.6664 27.5273 15.0176 27.5393 17.822 27.5393C20.6263 27.5393 20.9774 27.5273 22.079 27.4788C23.1765 27.4304 23.931 27.2529 24.5847 26.9987C25.9728 26.462 27.0703 25.3645 27.607 23.9764C27.8611 23.3187 28.0387 22.5681 28.0871 21.4706C28.1355 20.369 28.1477 20.018 28.1477 17.2136C28.1477 14.4092 28.1436 14.0582 28.0952 12.9566ZM26.2351 21.3899C26.1906 22.3987 26.0212 22.9434 25.88 23.3066C25.5329 24.2064 24.8187 24.9206 23.9189 25.2677C23.5557 25.4089 23.007 25.5783 22.0022 25.6226C20.9127 25.6712 20.586 25.6832 17.83 25.6832C15.074 25.6832 14.7432 25.6712 13.6576 25.6226C12.6489 25.5783 12.1041 25.4089 11.741 25.2677C11.2932 25.1022 10.8856 24.8399 10.5547 24.4969C10.2117 24.162 9.94945 23.7585 9.78395 23.3107C9.64272 22.9475 9.47328 22.3987 9.42899 21.394C9.38044 20.3045 9.36846 19.9776 9.36846 17.2216C9.36846 14.4656 9.38044 14.1348 9.42899 13.0494C9.47328 12.0407 9.64272 11.4959 9.78395 11.1328C9.94945 10.6848 10.2117 10.2774 10.5588 9.94635C10.8936 9.60337 11.2971 9.34109 11.7451 9.17575C12.1082 9.03452 12.6571 8.86508 13.6617 8.82063C14.7512 8.77224 15.0781 8.7601 17.8339 8.7601C20.594 8.7601 20.9208 8.77224 22.0063 8.82063C23.0151 8.86508 23.5598 9.03452 23.923 9.17575C24.3708 9.34109 24.7784 9.60337 25.1092 9.94635C25.4522 10.2813 25.7145 10.6848 25.88 11.1328C26.0212 11.4959 26.1906 12.0446 26.2351 13.0494C26.2835 14.1389 26.2956 14.4656 26.2956 17.2216C26.2956 19.9776 26.2835 20.3004 26.2351 21.3899Z" fill="#FCFFF8"/>
<path d="M17.8257 11.9072C14.8963 11.9072 12.5195 14.2838 12.5195 17.2134C12.5195 20.1429 14.8963 22.5195 17.8257 22.5195C20.7552 22.5195 23.1318 20.1429 23.1318 17.2134C23.1318 14.2838 20.7552 11.9072 17.8257 11.9072ZM17.8257 20.6553C15.9252 20.6553 14.3837 19.1139 14.3837 17.2134C14.3837 15.3128 15.9252 13.7714 17.8257 13.7714C19.7262 13.7714 21.2676 15.3128 21.2676 17.2134C21.2676 19.1139 19.7262 20.6553 17.8257 20.6553Z" fill="#FCFFF8"/>
<path d="M24.5792 11.6977C24.5792 12.3818 24.0245 12.9365 23.3403 12.9365C22.6562 12.9365 22.1016 12.3818 22.1016 11.6977C22.1016 11.0135 22.6562 10.459 23.3403 10.459C24.0245 10.459 24.5792 11.0135 24.5792 11.6977Z" fill="#FCFFF8"/>
</svg>
