<svg width="35" height="35" viewBox="0 0 35 35" fill="none" xmlns="http://www.w3.org/2000/svg">
<rect x="0.222656" width="34.4193" height="34.4193" rx="17.2096" fill="#13795F"/>
<path d="M27.3315 12.244C27.0936 11.3593 26.396 10.6618 25.5114 10.4236C23.8954 9.98145 17.431 9.98145 17.431 9.98145C17.431 9.98145 10.9669 9.98145 9.35088 10.4069C8.48329 10.6448 7.76873 11.3594 7.53075 12.244C7.10547 13.8599 7.10547 17.2111 7.10547 17.2111C7.10547 17.2111 7.10547 20.5793 7.53075 22.1783C7.76898 23.0629 8.46628 23.7603 9.351 23.9985C10.9839 24.4408 17.4313 24.4408 17.4313 24.4408C17.4313 24.4408 23.8954 24.4408 25.5114 24.0154C26.3961 23.7773 27.0936 23.0799 27.3318 22.1953C27.7569 20.5793 27.7569 17.2282 27.7569 17.2282C27.7569 17.2282 27.774 13.8599 27.3315 12.244ZM15.3729 20.3071V14.1152L20.7483 17.2111L15.3729 20.3071Z" fill="#FCFFF8"/>
</svg>
